<svg width="588" height="925" viewBox="0 0 588 925" fill="none" xmlns="http://www.w3.org/2000/svg">
<path d="M229.44 745.378C229.366 776.209 229.39 806.541 229.195 836.872C229.029 862.53 228.502 888.187 228.391 913.846C228.368 919.14 226.457 921.546 221.245 922.634C209.672 925.05 198.016 924.551 186.383 924.26C176.07 924.001 165.77 923.094 155.473 922.354C149.121 921.898 148.712 921.115 148.08 914.825C143.409 868.345 142.012 821.738 143.28 775.076C144.288 737.957 147.261 700.961 151.64 664.062C154.702 638.261 158.683 612.611 163.267 587.07C167.764 562.015 173.342 537.156 179.653 512.476C185.387 490.059 191.499 467.756 198.495 445.689C206.452 420.591 215.38 395.855 225.095 371.395C235.986 343.976 248.174 317.141 261.44 290.791C261.917 289.843 263.002 288.993 262.199 287.147C255.429 294.778 248.326 301.713 240.545 307.906C220.421 323.921 198.747 337.61 176.601 350.608C171.994 353.312 171.866 350.058 170.242 347.158C157.323 324.083 166.149 268.051 181.867 248.495C190.837 237.334 201.305 228.48 214.353 222.651C216.019 221.907 217.662 221.112 220.523 219.777C208.878 219.035 198.543 219.888 188.32 221.229C171.314 223.46 154.413 226.257 137.139 225.657C118.273 225.001 99.7464 221.61 81.0757 219.387C59.9221 216.869 38.782 214.236 17.6432 211.597C13.186 211.04 8.77613 210.09 4.31422 209.593C0.257967 209.14 -0.808729 207.336 0.573511 203.53C4.52021 192.664 11.1584 183.51 18.8514 175.125C36.9557 155.394 58.0244 139.489 82.2071 127.968C105.232 116.998 129.693 114.31 154.869 116.67C176.726 118.72 197.035 125.842 216.99 134.976C211.256 130.414 205.478 125.908 199.797 121.281C181.001 105.974 164.807 88.0052 148.123 70.5461C131.866 53.5349 115.356 36.855 94.8116 24.8431C89.4791 21.7252 84.239 18.4915 77.9703 17.5803C76.6321 17.3857 75.4199 16.9209 74.0455 14.9255C78.7924 12.7905 83.2313 10.4392 87.9092 8.74992C111.708 0.15559 136.263 -1.23561 161.283 0.86575C183.535 2.73452 204.358 9.07969 224.21 19.0509C248.056 31.0275 265.643 49.298 278.893 72.2577C295.176 100.471 304.923 130.883 310.603 162.767C310.861 164.214 311.223 165.643 311.818 167.056C312.241 147.993 312.376 128.955 310.627 109.955C309.62 99.0065 308.194 88.1545 305.071 77.5363C302.098 67.4283 296.51 58.815 290.749 50.2274C289.777 48.7781 288.212 47.496 288.69 45.4433C289.658 44.498 290.74 44.779 291.5 45.3586C301.802 53.2183 314.039 52.4147 325.937 53.1405C354.701 54.8952 377.607 66.8498 393.687 91.3177C398.122 98.067 398.146 104.602 395.707 111.735C391.521 123.984 384.883 134.945 377.959 145.76C375.365 149.811 372.736 153.84 369.549 158.767C376.695 154.703 382.899 151.011 389.249 147.592C417.136 132.575 446.642 123.205 478.605 124.31C515.28 125.578 546.643 139.04 570.895 167.29C577.78 175.31 583.006 184.402 587.11 194.136C587.561 195.206 588.017 196.28 587.685 197.272C586.79 198.399 585.834 198.299 584.807 198.118C560.581 193.842 537.46 198.005 514.937 207.117C502.287 212.234 489.522 216.984 476.406 220.896C458.357 226.28 440.293 225.507 421.986 223.194C411.487 221.868 400.884 221.369 390.263 221.031C398.975 222.912 407.783 224.03 416.471 225.941C474.838 238.778 517.867 271.479 542.701 325.946C558.041 359.592 558.025 394.403 543.057 428.699C540.69 434.124 539.413 434.636 536.236 431.124C518.353 411.353 496.326 396.992 473.997 382.986C454.177 370.553 435.216 357.06 419.957 338.991C411.448 328.914 404.54 317.667 396.402 307.318C386.595 294.845 375.907 283.202 364.444 272.255C363.624 271.472 362.68 270.819 361.144 269.583C361.555 273.767 363.388 276.692 364.726 279.644C376.896 306.493 370.591 330.925 355.42 354.354C348.238 365.446 340.27 375.88 330.596 384.908C326.385 388.838 322.497 393.026 318.632 397.881C309.619 356.944 299.785 316.471 303.449 274.212C254.442 427.291 232.979 584.669 229.44 745.378ZM178.44 644.908C176.165 659.883 173.571 674.817 171.68 689.84C167.148 725.833 163.428 761.898 161.12 798.13C158.831 834.056 158.626 870.019 157.615 905.969C157.44 912.213 157.716 912.511 164.128 912.106C180.912 911.047 197.683 909.824 214.513 911.062C215.094 911.105 215.706 910.724 216.485 910.485C216.265 908.833 216.176 907.342 215.858 905.901C209.52 877.208 206.307 848.06 204.482 818.822C202.708 790.41 202.784 761.938 203.723 733.433C204.854 699.136 207.028 664.943 209.962 630.771C213.025 595.102 217.722 559.636 223.392 524.315C228.8 490.63 235.5 457.169 243.501 423.993C259.463 357.803 279.626 293.026 308.787 231.301C309.52 229.75 310.927 228.161 309.259 226.24C305.581 226.154 304.721 228.973 303.671 231.6C286.731 273.956 269.519 316.199 254.165 359.18C242.568 391.646 231.847 424.378 221.959 457.392C212.593 488.662 204.194 520.196 196.797 551.99C189.706 582.467 183.723 613.169 178.44 644.908ZM436.82 326.372C447.522 339.307 460.408 349.84 473.764 359.837C495.499 376.105 517.764 391.76 534.769 413.415C535.134 413.88 535.77 414.132 536.204 414.431C537.566 413.578 537.686 412.366 537.888 411.256C542.579 385.456 540.167 360.252 529.109 336.538C506.675 288.43 469.257 257.581 418.293 242.996C386.493 233.895 353.632 230.964 320.615 225.957C321.4 226.506 321.747 226.856 322.166 227.027C356.317 240.918 384.948 262.353 409.117 290.072C419.001 301.407 426.795 314.281 436.82 326.372ZM78.0173 154.644C56.9028 165.897 36.7068 178.45 18.8869 195.414C20.1314 195.815 20.4666 196.05 20.7467 195.996C44.543 191.437 68.1341 193.861 91.7246 197.841C121.837 202.921 151.93 205.696 182.627 202.125C213.812 198.498 244.777 202.618 275.345 209.404C281.125 210.687 286.907 211.956 292.688 213.232C285.875 206.554 278.673 200.74 271.292 195.16C247.855 177.442 223.874 160.544 196.151 150.019C156.445 134.945 117.16 134.34 78.0173 154.644ZM249.407 139.767C267.738 157.575 284.767 176.558 300.561 196.72C291.792 157.07 279.372 118.99 258.291 84.0366C240.639 54.7695 214.577 37.1927 182.704 27.0113C164.522 21.2031 145.885 17.9808 126.868 16.817C124.043 16.6441 121.206 16.6605 118.374 16.6305C115.594 16.601 112.813 16.624 110.033 16.624C127.453 25.755 142.582 37.1381 156.066 50.6577C168.532 63.1581 180.474 76.1804 192.841 88.7829C210.483 106.762 230.782 121.811 249.407 139.767ZM471.192 147.744C416.865 151.864 372.851 179.025 329.542 210.91C335.811 210.895 340.467 209.038 345.291 208.229C372.928 203.592 400.764 200.793 428.771 201.274C455.953 201.74 482.523 199.255 508.617 191.096C523.879 186.324 539.703 183.752 555.876 184.275C559.78 184.402 563.643 185.87 568.469 184.68C541.424 157.771 508.997 146.998 471.192 147.744ZM365.723 81.446C350.963 68.7912 333.073 65.5302 314.541 63.8709C314.204 65.8034 314.977 66.9324 315.59 68.095C326.965 89.6954 329.565 113.028 328.741 136.907C328.068 156.42 324.501 175.594 320.833 194.729C320.517 196.379 320.047 198.127 321.015 200.177C322.168 198.959 323.039 198.179 323.746 197.271C339.219 177.425 353.774 156.931 366.976 135.5C372.479 126.568 377.745 117.503 381.273 107.528C382.634 103.68 382.127 100.511 379.789 97.2345C375.802 91.6441 371.318 86.5308 365.723 81.446ZM262.951 258.535C274.684 246.048 290.078 237.848 303.046 225.037C280.466 226.237 259.415 228.887 239.3 236.47C219.206 244.046 202.869 255.958 195.419 277.148C189.785 293.173 185.474 309.592 181.991 326.22C181.708 327.571 180.884 329.085 182.375 330.28C184.151 330.128 185.06 328.819 186.067 327.779C192.915 320.708 200.324 314.254 208.042 308.177C227.293 293.02 246.027 277.307 262.951 258.535ZM337.491 337.126C338.111 335.761 338.746 334.403 339.348 333.03C344.465 321.342 348.913 309.687 345.087 296.429C343.528 291.029 342.412 285.446 340.824 280.022C336.179 264.155 326.92 250.875 316.655 236.478C317.427 242.071 318.083 246.145 318.539 250.241C319.979 263.206 318.951 276.174 318.763 289.159C318.46 310.157 320.681 331.055 322.967 351.919C323.439 356.23 323.585 360.578 323.881 364.909C324.278 364.977 324.676 365.044 325.074 365.111C329.115 356.017 333.155 346.922 337.491 337.126Z" fill="#FFFBE9"/>
</svg>
