<svg width="398" height="76" viewBox="0 0 398 76" fill="none" xmlns="http://www.w3.org/2000/svg">
<path d="M33.9336 75.1016C27.2604 75.1016 21.3685 73.5228 16.2578 70.3652C11.1471 67.2077 7.15951 62.8132 4.29492 57.1816C1.43034 51.5501 -0.00195312 45.0234 -0.00195312 37.6016C-0.00195312 30.1146 1.43034 23.5553 4.29492 17.9238C7.15951 12.2923 11.1309 7.89779 16.209 4.74023C21.3197 1.58268 27.2279 0.00390625 33.9336 0.00390625C39.2396 0.00390625 44.041 1.04557 48.3379 3.12891C52.6673 5.21224 56.248 8.1582 59.0801 11.9668C61.9121 15.7428 63.7513 20.2188 64.5977 25.3945H53.5625C52.4883 20.4466 50.1934 16.638 46.6777 13.9688C43.1947 11.2669 38.9792 9.91602 34.0312 9.91602C29.2461 9.91602 25.1283 11.0716 21.6777 13.3828C18.2272 15.694 15.5579 18.9329 13.6699 23.0996C11.8145 27.2663 10.8867 32.1003 10.8867 37.6016C10.8867 43.1029 11.8145 47.9206 13.6699 52.0547C15.5254 56.1888 18.1784 59.4115 21.6289 61.7227C25.112 64.0339 29.2461 65.1895 34.0312 65.1895C38.9466 65.1895 43.1458 63.8548 46.6289 61.1855C50.1445 58.5163 52.472 54.724 53.6113 49.8086H64.5977C63.7513 54.9518 61.9121 59.4277 59.0801 63.2363C56.248 67.0124 52.6673 69.9421 48.3379 72.0254C44.041 74.0762 39.2396 75.1016 33.9336 75.1016ZM86.9395 74.7598C81.7962 74.7598 77.5319 73.4577 74.1465 70.8535C70.7611 68.2168 69.0684 64.3268 69.0684 59.1836C69.0684 55.2773 70.0286 52.2826 71.9492 50.1992C73.9023 48.0833 76.4251 46.5697 79.5176 45.6582C82.6426 44.7467 85.9466 44.0794 89.4297 43.6562C92.6523 43.2656 95.2077 42.9401 97.0957 42.6797C98.9837 42.4193 100.318 42.0286 101.1 41.5078C101.913 40.987 102.32 40.0918 102.32 38.8223V38.3828C102.32 35.8763 101.409 33.8255 99.5859 32.2305C97.763 30.6029 95.2077 29.7891 91.9199 29.7891C88.6322 29.7891 85.9466 30.5866 83.8633 32.1816C81.7799 33.7441 80.6406 35.7135 80.4453 38.0898H70.3379C70.5658 33.1745 72.6328 29.1543 76.5391 26.0293C80.4453 22.9043 85.6211 21.3418 92.0664 21.3418C98.4141 21.3418 103.411 22.9043 107.057 26.0293C110.702 29.1543 112.525 33.3372 112.525 38.5781V73.9297H102.369V66.6055H102.174C101.1 68.6888 99.3906 70.5768 97.0469 72.2695C94.7357 73.9297 91.3665 74.7598 86.9395 74.7598ZM89.0391 66.459C93.5964 66.459 96.9492 65.2871 99.0977 62.9434C101.279 60.5671 102.369 57.8001 102.369 54.6426V48.5879C101.686 49.1413 100.139 49.6458 97.7305 50.1016C95.3216 50.5247 92.75 50.9316 90.0156 51.3223C87.1836 51.7454 84.6934 52.543 82.5449 53.7148C80.3965 54.8867 79.3223 56.7747 79.3223 59.3789C79.3223 61.5924 80.1849 63.334 81.9102 64.6035C83.668 65.8405 86.0443 66.459 89.0391 66.459ZM131.449 1.17578V73.9297H121.146V1.17578H131.449ZM155.842 74.7598C150.699 74.7598 146.434 73.4577 143.049 70.8535C139.663 68.2168 137.971 64.3268 137.971 59.1836C137.971 55.2773 138.931 52.2826 140.852 50.1992C142.805 48.0833 145.327 46.5697 148.42 45.6582C151.545 44.7467 154.849 44.0794 158.332 43.6562C161.555 43.2656 164.11 42.9401 165.998 42.6797C167.886 42.4193 169.221 42.0286 170.002 41.5078C170.816 40.987 171.223 40.0918 171.223 38.8223V38.3828C171.223 35.8763 170.311 33.8255 168.488 32.2305C166.665 30.6029 164.11 29.7891 160.822 29.7891C157.535 29.7891 154.849 30.5866 152.766 32.1816C150.682 33.7441 149.543 35.7135 149.348 38.0898H139.24C139.468 33.1745 141.535 29.1543 145.441 26.0293C149.348 22.9043 154.523 21.3418 160.969 21.3418C167.316 21.3418 172.313 22.9043 175.959 26.0293C179.605 29.1543 181.428 33.3372 181.428 38.5781V73.9297H171.271V66.6055H171.076C170.002 68.6888 168.293 70.5768 165.949 72.2695C163.638 73.9297 160.269 74.7598 155.842 74.7598ZM157.941 66.459C162.499 66.459 165.852 65.2871 168 62.9434C170.181 60.5671 171.271 57.8001 171.271 54.6426V48.5879C170.588 49.1413 169.042 49.6458 166.633 50.1016C164.224 50.5247 161.652 50.9316 158.918 51.3223C156.086 51.7454 153.596 52.543 151.447 53.7148C149.299 54.8867 148.225 56.7747 148.225 59.3789C148.225 61.5924 149.087 63.334 150.812 64.6035C152.57 65.8405 154.947 66.459 157.941 66.459ZM209.873 74.9551C205.381 74.9551 201.458 73.832 198.105 71.5859C194.753 69.3073 192.148 66.166 190.293 62.1621C188.438 58.1257 187.51 53.4544 187.51 48.1484C187.51 42.8424 188.438 38.1875 190.293 34.1836C192.181 30.1471 194.801 27.0059 198.154 24.7598C201.507 22.4811 205.397 21.3418 209.824 21.3418C213.177 21.3418 216.237 22.0417 219.004 23.4414C221.771 24.8411 223.984 26.9733 225.645 29.8379H225.742V1.17578H236.045V73.9297H225.938V66.0684H225.84C224.115 69.0632 221.852 71.293 219.053 72.7578C216.286 74.2227 213.226 74.9551 209.873 74.9551ZM211.973 66.0684C216.367 66.0684 219.867 64.4408 222.471 61.1855C225.107 57.8978 226.426 53.5521 226.426 48.1484C226.426 42.7122 225.107 38.3665 222.471 35.1113C219.867 31.8236 216.367 30.1797 211.973 30.1797C207.806 30.1797 204.421 31.7259 201.816 34.8184C199.245 37.8783 197.959 42.3216 197.959 48.1484C197.959 53.9753 199.245 58.4186 201.816 61.4785C204.421 64.5384 207.806 66.0684 211.973 66.0684ZM260.389 74.7598C255.245 74.7598 250.981 73.4577 247.596 70.8535C244.21 68.2168 242.518 64.3268 242.518 59.1836C242.518 55.2773 243.478 52.2826 245.398 50.1992C247.352 48.0833 249.874 46.5697 252.967 45.6582C256.092 44.7467 259.396 44.0794 262.879 43.6562C266.102 43.2656 268.657 42.9401 270.545 42.6797C272.433 42.4193 273.768 42.0286 274.549 41.5078C275.363 40.987 275.77 40.0918 275.77 38.8223V38.3828C275.77 35.8763 274.858 33.8255 273.035 32.2305C271.212 30.6029 268.657 29.7891 265.369 29.7891C262.081 29.7891 259.396 30.5866 257.312 32.1816C255.229 33.7441 254.09 35.7135 253.895 38.0898H243.787C244.015 33.1745 246.082 29.1543 249.988 26.0293C253.895 22.9043 259.07 21.3418 265.516 21.3418C271.863 21.3418 276.86 22.9043 280.506 26.0293C284.152 29.1543 285.975 33.3372 285.975 38.5781V73.9297H275.818V66.6055H275.623C274.549 68.6888 272.84 70.5768 270.496 72.2695C268.185 73.9297 264.816 74.7598 260.389 74.7598ZM262.488 66.459C267.046 66.459 270.398 65.2871 272.547 62.9434C274.728 60.5671 275.818 57.8001 275.818 54.6426V48.5879C275.135 49.1413 273.589 49.6458 271.18 50.1016C268.771 50.5247 266.199 50.9316 263.465 51.3223C260.633 51.7454 258.143 52.543 255.994 53.7148C253.846 54.8867 252.771 56.7747 252.771 59.3789C252.771 61.5924 253.634 63.334 255.359 64.6035C257.117 65.8405 259.493 66.459 262.488 66.459ZM304.898 44.2422V73.9297H294.596V22.3672H304.703V30.1309C308.219 24.2715 313.411 21.3418 320.279 21.3418C323.827 21.3418 327.001 22.123 329.801 23.6855C332.633 25.2155 334.863 27.4941 336.49 30.5215C338.118 33.5488 338.932 37.3086 338.932 41.8008V73.9297H328.629V43.0703C328.629 38.9362 327.636 35.8275 325.65 33.7441C323.665 31.6283 320.898 30.5703 317.35 30.5703C313.834 30.5703 310.872 31.6608 308.463 33.8418C306.087 35.9902 304.898 39.457 304.898 44.2422ZM382.367 27.3477L375.043 10.3555V27.3477H369.916V1.17578H376.117L383.734 19.8281L391.352 1.17578H397.602V27.3477H392.426V10.4531L385.15 27.3477H382.367ZM352.24 27.3477V5.61914H344.33V1.17578H365.326V5.61914H357.416V27.3477H352.24Z" fill="black"/>
</svg>
