<svg width="32" height="32" viewBox="0 0 32 32" fill="none" xmlns="http://www.w3.org/2000/svg">
<g clip-path="url(#clip0_38177_27729)">
<rect width="32" height="32" rx="4" fill="#071522"/>
<path d="M13.5702 32.5931C13.5678 33.6104 13.5685 34.6112 13.5621 35.6119C13.5566 36.4585 13.5392 37.305 13.5356 38.1516C13.5348 38.3263 13.4718 38.4057 13.2998 38.4416C12.918 38.5213 12.5334 38.5048 12.1495 38.4952C11.8093 38.4867 11.4695 38.4567 11.1297 38.4323C10.9201 38.4173 10.9066 38.3914 10.8858 38.1839C10.7317 36.6503 10.6856 35.1126 10.7274 33.573C10.7607 32.3483 10.8588 31.1276 11.0032 29.9102C11.1043 29.0589 11.2356 28.2126 11.3869 27.3699C11.5352 26.5432 11.7193 25.723 11.9275 24.9087C12.1167 24.1691 12.3184 23.4332 12.5492 22.7051C12.8117 21.8771 13.1063 21.0609 13.4268 20.2539C13.7862 19.3492 14.1883 18.4638 14.626 17.5944C14.6417 17.5631 14.6775 17.5351 14.651 17.4742C14.4277 17.726 14.1933 17.9548 13.9366 18.1591C13.2726 18.6875 12.5575 19.1392 11.8268 19.568C11.6748 19.6572 11.6706 19.5499 11.617 19.4542C11.1908 18.6928 11.482 16.8441 12.0005 16.1989C12.2965 15.8306 12.6419 15.5385 13.0724 15.3462C13.1274 15.3216 13.1816 15.2954 13.276 15.2513C12.8918 15.2269 12.5508 15.255 12.2135 15.2993C11.6524 15.3729 11.0947 15.4652 10.5248 15.4454C9.90232 15.4237 9.29105 15.3118 8.67503 15.2385C7.97708 15.1554 7.27958 15.0686 6.58212 14.9815C6.43506 14.9631 6.28956 14.9318 6.14234 14.9153C6.00851 14.9004 5.97332 14.8409 6.01892 14.7153C6.14914 14.3568 6.36816 14.0548 6.62199 13.7781C7.21932 13.1271 7.91447 12.6023 8.71236 12.2222C9.47205 11.8603 10.2791 11.7715 11.1098 11.8494C11.8309 11.9171 12.501 12.1521 13.1594 12.4534C12.9702 12.3029 12.7796 12.1542 12.5922 12.0016C11.972 11.4965 11.4377 10.9037 10.8872 10.3276C10.3508 9.76634 9.80607 9.216 9.12823 8.81968C8.95229 8.71681 8.7794 8.61011 8.57257 8.58005C8.52841 8.57363 8.48842 8.55829 8.44307 8.49245C8.59969 8.42201 8.74615 8.34443 8.90049 8.2887C9.68571 8.00513 10.4959 7.95923 11.3214 8.02856C12.0556 8.09022 12.7426 8.29958 13.3976 8.62857C14.1844 9.02373 14.7647 9.62655 15.2019 10.3841C15.7391 11.315 16.0607 12.3184 16.2481 13.3704C16.2566 13.4181 16.2685 13.4653 16.2882 13.5119C16.3021 12.8829 16.3066 12.2548 16.2489 11.6279C16.2156 11.2666 16.1686 10.9086 16.0656 10.5582C15.9675 10.2247 15.7831 9.94055 15.593 9.65721C15.561 9.6094 15.5093 9.56709 15.5251 9.49937C15.557 9.46818 15.5927 9.47745 15.6178 9.49657C15.9577 9.7559 16.3615 9.72938 16.754 9.75333C17.7031 9.81122 18.4588 10.2057 18.9894 11.013C19.1357 11.2356 19.1365 11.4512 19.056 11.6866C18.9179 12.0908 18.6989 12.4524 18.4704 12.8092C18.3849 12.9429 18.2981 13.0758 18.193 13.2384C18.4288 13.1043 18.6334 12.9825 18.8429 12.8697C19.763 12.3742 20.7366 12.065 21.7912 12.1015C23.0012 12.1433 24.036 12.5875 24.8362 13.5196C25.0634 13.7842 25.2358 14.0842 25.3712 14.4054C25.3861 14.4407 25.4011 14.4761 25.3902 14.5088C25.3607 14.546 25.3291 14.5427 25.2952 14.5367C24.4959 14.3956 23.733 14.533 22.9899 14.8336C22.5725 15.0025 22.1514 15.1592 21.7186 15.2883C21.1231 15.4659 20.5271 15.4404 19.9231 15.3641C19.5767 15.3204 19.2268 15.3039 18.8764 15.2927C19.1639 15.3548 19.4545 15.3917 19.7411 15.4547C21.6669 15.8783 23.0866 16.9572 23.906 18.7543C24.4121 19.8645 24.4116 21.013 23.9177 22.1446C23.8396 22.3236 23.7975 22.3405 23.6927 22.2246C23.1026 21.5723 22.3759 21.0984 21.6391 20.6363C20.9852 20.2261 20.3596 19.7809 19.8562 19.1847C19.5754 18.8522 19.3475 18.4812 19.079 18.1397C18.7554 17.7282 18.4028 17.344 18.0245 16.9828C17.9975 16.957 17.9663 16.9354 17.9157 16.8947C17.9292 17.0327 17.9897 17.1292 18.0338 17.2266C18.4354 18.1125 18.2273 18.9186 17.7268 19.6916C17.4898 20.0576 17.2269 20.4018 16.9077 20.6997C16.7688 20.8294 16.6405 20.9676 16.513 21.1277C16.2156 19.7771 15.8912 18.4417 16.012 17.0474C14.3951 22.0981 13.687 27.2907 13.5702 32.5931ZM11.8875 29.2782C11.8124 29.7723 11.7268 30.265 11.6644 30.7607C11.5149 31.9483 11.3922 33.1382 11.316 34.3337C11.2405 35.519 11.2337 36.7056 11.2004 37.8917C11.1946 38.0977 11.2037 38.1075 11.4153 38.0942C11.969 38.0592 12.5224 38.0189 13.0777 38.0598C13.0968 38.0612 13.1171 38.0486 13.1428 38.0407C13.1355 37.9862 13.1326 37.937 13.1221 37.8895C12.913 36.9428 12.8069 35.9811 12.7467 35.0164C12.6882 34.0789 12.6907 33.1395 12.7217 32.199C12.759 31.0674 12.8307 29.9393 12.9275 28.8118C13.0286 27.6349 13.1836 26.4647 13.3706 25.2993C13.5491 24.1879 13.7701 23.0839 14.0341 21.9893C14.5608 19.8054 15.226 17.6682 16.1882 15.6316C16.2123 15.5804 16.2588 15.528 16.2037 15.4646C16.0824 15.4618 16.054 15.5548 16.0194 15.6414C15.4604 17.039 14.8926 18.4327 14.386 19.8509C14.0033 20.922 13.6496 22.002 13.3234 23.0913C13.0143 24.123 12.7372 25.1635 12.4932 26.2125C12.2592 27.218 12.0618 28.231 11.8875 29.2782ZM20.4125 18.7684C20.7656 19.1952 21.1908 19.5427 21.6315 19.8725C22.3486 20.4093 23.0832 20.9258 23.6443 21.6403C23.6563 21.6556 23.6773 21.6639 23.6916 21.6738C23.7366 21.6457 23.7405 21.6057 23.7472 21.569C23.9019 20.7178 23.8224 19.8862 23.4575 19.1038C22.7173 17.5165 21.4828 16.4987 19.8012 16.0174C18.752 15.7172 17.6678 15.6205 16.5784 15.4553C16.6043 15.4734 16.6158 15.4849 16.6296 15.4906C17.7564 15.9489 18.701 16.6561 19.4985 17.5707C19.8246 17.9447 20.0817 18.3694 20.4125 18.7684ZM8.57412 13.1024C7.87746 13.4736 7.21111 13.8878 6.62316 14.4475C6.66422 14.4608 6.67528 14.4685 6.68452 14.4667C7.46966 14.3163 8.24803 14.3963 9.02638 14.5276C10.0199 14.6952 11.0128 14.7868 12.0256 14.669C13.0545 14.5493 14.0762 14.6852 15.0848 14.9091C15.2755 14.9514 15.4663 14.9933 15.657 15.0354C15.4322 14.8151 15.1946 14.6232 14.9511 14.4392C14.1778 13.8546 13.3866 13.297 12.4718 12.9498C11.1618 12.4524 9.86561 12.4325 8.57412 13.1024ZM14.229 12.6115C14.8338 13.1991 15.3956 13.8254 15.9168 14.4906C15.6275 13.1824 15.2177 11.926 14.5221 10.7727C13.9397 9.80708 13.0798 9.22714 12.0282 8.89121C11.4283 8.69958 10.8134 8.59326 10.1859 8.55486C10.0927 8.54916 9.99908 8.5497 9.90564 8.54871C9.81392 8.54774 9.72218 8.5485 9.63046 8.5485C10.2052 8.84976 10.7044 9.22534 11.1493 9.67141C11.5606 10.0838 11.9546 10.5135 12.3626 10.9293C12.9447 11.5225 13.6145 12.0191 14.229 12.6115ZM21.5466 12.8747C19.7541 13.0106 18.3019 13.9068 16.873 14.9588C17.0798 14.9583 17.2334 14.897 17.3926 14.8703C18.3045 14.7174 19.2229 14.625 20.147 14.6409C21.0438 14.6562 21.9204 14.5742 22.7814 14.3051C23.285 14.1476 23.8071 14.0628 24.3407 14.08C24.4695 14.0842 24.597 14.1326 24.7562 14.0934C23.8639 13.2055 22.7939 12.8501 21.5466 12.8747ZM18.0667 10.6872C17.5797 10.2697 16.9895 10.1621 16.378 10.1074C16.3669 10.1711 16.3924 10.2084 16.4126 10.2467C16.7879 10.9594 16.8737 11.7293 16.8466 12.5171C16.8244 13.161 16.7066 13.7936 16.5856 14.4249C16.5752 14.4794 16.5597 14.537 16.5916 14.6047C16.6297 14.5645 16.6584 14.5388 16.6817 14.5088C17.1923 13.854 17.6725 13.1778 18.1081 12.4707C18.2896 12.176 18.4634 11.8769 18.5798 11.5478C18.6247 11.4208 18.608 11.3163 18.5308 11.2082C18.3993 11.0237 18.2513 10.855 18.0667 10.6872ZM14.6758 16.5302C15.063 16.1182 15.5709 15.8476 15.9987 15.4249C15.2537 15.4645 14.5592 15.552 13.8955 15.8021C13.2325 16.0521 12.6935 16.4451 12.4477 17.1443C12.2618 17.673 12.1196 18.2147 12.0046 18.7634C11.9953 18.8079 11.9681 18.8579 12.0173 18.8973C12.0759 18.8923 12.1059 18.8491 12.1391 18.8148C12.3651 18.5815 12.6095 18.3686 12.8642 18.1681C13.4993 17.6679 14.1175 17.1495 14.6758 16.5302ZM17.1352 19.1232C17.1557 19.0782 17.1767 19.0334 17.1965 18.988C17.3653 18.6024 17.5121 18.2179 17.3859 17.7804C17.3344 17.6023 17.2976 17.4181 17.2452 17.2391C17.092 16.7156 16.7864 16.2774 16.4478 15.8024C16.4733 15.9869 16.4949 16.1213 16.5099 16.2565C16.5575 16.6843 16.5235 17.1121 16.5173 17.5406C16.5073 18.2334 16.5806 18.9229 16.656 19.6113C16.6716 19.7535 16.6764 19.897 16.6862 20.0399C16.6993 20.0421 16.7124 20.0443 16.7255 20.0465C16.8589 19.7465 16.9922 19.4464 17.1352 19.1232Z" fill="#FFFBE9"/>
</g>
<defs>
<clipPath id="clip0_38177_27729">
<rect width="32" height="32" rx="4" fill="white"/>
</clipPath>
</defs>
</svg>
