<svg width="256" height="256" viewBox="0 0 256 256" fill="none" xmlns="http://www.w3.org/2000/svg">
<g clip-path="url(#clip0_38177_27731)">
<rect width="256" height="256" rx="24" fill="#071522"/>
<path d="M110.561 250.745C110.542 258.883 110.548 266.889 110.497 274.895C110.453 281.668 110.314 288.44 110.285 295.213C110.279 296.61 109.774 297.245 108.398 297.533C105.344 298.17 102.267 298.038 99.1963 297.962C96.4742 297.893 93.7556 297.654 91.0377 297.459C89.3611 297.338 89.2531 297.132 89.0863 295.471C87.8534 283.203 87.4846 270.901 87.8192 258.584C88.0854 248.786 88.8701 239.021 90.026 229.281C90.8342 222.471 91.8849 215.701 93.095 208.959C94.282 202.346 95.7541 195.784 97.4201 189.27C98.9335 183.353 100.547 177.466 102.393 171.641C104.494 165.016 106.85 158.487 109.415 152.031C112.289 144.794 115.506 137.71 119.008 130.755C119.134 130.505 119.42 130.281 119.208 129.793C117.421 131.808 115.547 133.638 113.493 135.273C108.181 139.5 102.46 143.113 96.6143 146.544C95.3984 147.258 95.3647 146.399 94.9361 145.634C91.526 139.543 93.8557 124.753 98.0044 119.591C100.372 116.645 103.135 114.308 106.579 112.77C107.019 112.573 107.453 112.363 108.208 112.011C105.134 111.815 102.406 112.04 99.7078 112.394C95.2189 112.983 90.7578 113.721 86.1982 113.563C81.2186 113.39 76.3284 112.495 71.4002 111.908C65.8167 111.243 60.2367 110.548 54.657 109.852C53.4805 109.705 52.3165 109.454 51.1388 109.323C50.0681 109.203 49.7865 108.727 50.1514 107.722C51.1931 104.854 52.9453 102.438 54.9759 100.225C59.7546 95.0168 65.3157 90.8187 71.6988 87.7776C77.7764 84.8821 84.2329 84.1724 90.8783 84.7955C96.6476 85.3365 102.008 87.2164 107.275 89.6274C105.762 88.4233 104.237 87.2338 102.737 86.0126C97.7759 81.9721 93.5014 77.2293 89.0975 72.6209C84.8065 68.1307 80.4485 63.728 75.0259 60.5574C73.6183 59.7344 72.2352 58.8809 70.5805 58.6404C70.2273 58.589 69.9073 58.4663 69.5446 57.9396C70.7975 57.3761 71.9692 56.7555 73.2039 56.3096C79.4857 54.0411 85.9671 53.6739 92.5713 54.2285C98.4446 54.7218 103.941 56.3966 109.181 59.0286C115.475 62.1898 120.117 67.0124 123.615 73.0727C127.913 80.5198 130.486 88.5472 131.985 96.9628C132.053 97.3449 132.148 97.7221 132.305 98.095C132.417 93.0634 132.453 88.0381 131.991 83.0229C131.725 80.1331 131.349 77.2687 130.525 74.466C129.74 71.798 128.265 69.5244 126.744 67.2577C126.488 66.8752 126.075 66.5367 126.201 65.9949C126.456 65.7454 126.742 65.8196 126.942 65.9726C129.662 68.0472 132.892 67.8351 136.032 68.0266C143.625 68.4898 149.671 71.6452 153.915 78.1036C155.086 79.8851 155.092 81.6099 154.448 83.4928C153.343 86.726 151.591 89.6192 149.764 92.4738C149.079 93.5432 148.385 94.6067 147.544 95.907C149.43 94.8344 151.067 93.8599 152.744 92.9574C160.104 88.9937 167.893 86.5203 176.329 86.812C186.01 87.1468 194.288 90.7001 200.69 98.1568C202.507 100.274 203.886 102.673 204.97 105.243C205.089 105.525 205.209 105.809 205.121 106.071C204.885 106.368 204.633 106.342 204.362 106.294C197.967 105.165 191.864 106.264 185.919 108.669C182.58 110.02 179.211 111.274 175.749 112.306C170.985 113.727 166.217 113.523 161.385 112.913C158.613 112.563 155.815 112.431 153.011 112.342C155.311 112.838 157.636 113.134 159.929 113.638C175.335 117.026 186.693 125.658 193.248 140.035C197.297 148.916 197.293 158.104 193.342 167.157C192.717 168.589 192.38 168.724 191.541 167.797C186.821 162.578 181.007 158.787 175.113 155.09C169.882 151.809 164.877 148.247 160.849 143.478C158.603 140.818 156.78 137.849 154.632 135.118C152.043 131.825 149.222 128.752 146.196 125.863C145.98 125.656 145.731 125.484 145.325 125.157C145.434 126.262 145.917 127.034 146.271 127.813C149.483 134.9 147.819 141.349 143.814 147.533C141.919 150.461 139.815 153.215 137.262 155.598C136.15 156.635 135.124 157.741 134.104 159.022C131.725 148.217 129.129 137.534 130.096 126.379C117.161 166.785 111.496 208.326 110.561 250.745ZM97.0999 224.226C96.4994 228.178 95.8147 232.12 95.3154 236.086C94.1192 245.586 93.1374 255.106 92.5281 264.669C91.924 274.152 91.8699 283.645 91.6031 293.134C91.5567 294.782 91.6297 294.86 93.3222 294.754C97.7524 294.474 102.179 294.151 106.621 294.478C106.775 294.489 106.936 294.389 107.142 294.326C107.084 293.89 107.06 293.496 106.977 293.116C105.304 285.542 104.455 277.849 103.974 270.131C103.505 262.631 103.525 255.116 103.773 247.592C104.072 238.539 104.646 229.514 105.42 220.494C106.229 211.079 107.468 201.718 108.965 192.395C110.393 183.504 112.161 174.671 114.273 165.914C118.486 148.443 123.808 131.345 131.505 115.053C131.699 114.643 132.07 114.224 131.63 113.717C130.659 113.694 130.432 114.438 130.155 115.132C125.684 126.312 121.14 137.462 117.088 148.807C114.027 157.376 111.197 166.016 108.587 174.73C106.115 182.984 103.898 191.308 101.945 199.7C100.074 207.744 98.4944 215.848 97.0999 224.226ZM165.3 140.147C168.125 143.561 171.526 146.342 175.052 148.98C180.789 153.274 186.666 157.406 191.154 163.122C191.251 163.245 191.418 163.312 191.533 163.391C191.893 163.165 191.924 162.846 191.977 162.552C193.216 155.743 192.579 149.09 189.66 142.83C183.739 130.132 173.862 121.989 160.41 118.14C152.016 115.737 143.343 114.964 134.627 113.642C134.835 113.787 134.926 113.88 135.037 113.925C144.051 117.591 151.608 123.249 157.988 130.565C160.597 133.557 162.654 136.956 165.3 140.147ZM70.5929 94.819C65.0197 97.789 59.6889 101.103 54.9853 105.58C55.3137 105.686 55.4022 105.748 55.4762 105.734C61.7573 104.53 67.9842 105.17 74.211 106.221C82.1592 107.562 90.1024 108.294 98.2051 107.352C106.436 106.394 114.61 107.482 122.678 109.273C124.204 109.611 125.73 109.947 127.256 110.283C125.458 108.521 123.557 106.986 121.609 105.513C115.422 100.836 109.092 96.3762 101.775 93.5981C91.2943 89.6193 80.9249 89.4596 70.5929 94.819ZM115.832 90.8921C120.67 95.5925 125.165 100.603 129.334 105.925C127.02 95.4593 123.741 85.4078 118.177 76.1818C113.518 68.4566 106.638 63.8171 98.2254 61.1297C93.4262 59.5966 88.507 58.7461 83.4872 58.4389C82.7416 58.3933 81.9926 58.3976 81.2451 58.3897C80.5114 58.3819 79.7775 58.388 79.0437 58.388C83.6418 60.7981 87.6351 63.8027 91.194 67.3713C94.4847 70.6708 97.6368 74.1081 100.901 77.4346C105.558 82.1801 110.916 86.1525 115.832 90.8921ZM174.373 92.9976C160.033 94.0849 148.415 101.254 136.984 109.671C138.638 109.667 139.868 109.176 141.141 108.963C148.436 107.739 155.783 107 163.176 107.127C170.35 107.25 177.364 106.594 184.251 104.44C188.28 103.181 192.457 102.502 196.725 102.64C197.756 102.673 198.776 103.061 200.049 102.747C192.911 95.6443 184.351 92.8006 174.373 92.9976ZM146.534 75.498C142.638 72.1577 137.916 71.2969 133.024 70.859C132.935 71.369 133.139 71.667 133.301 71.9739C136.303 77.6754 136.99 83.8341 136.772 90.137C136.595 95.2876 135.653 100.349 134.685 105.399C134.602 105.835 134.478 106.296 134.733 106.837C135.037 106.516 135.267 106.31 135.454 106.07C139.538 100.832 143.38 95.4225 146.865 89.7657C148.317 87.408 149.707 85.0154 150.638 82.3823C150.997 81.3668 150.864 80.5303 150.247 79.6654C149.194 78.1898 148.011 76.8401 146.534 75.498ZM119.407 122.241C122.504 118.945 126.567 116.781 129.99 113.399C124.03 113.716 118.473 114.416 113.164 116.417C107.86 118.417 103.548 121.561 101.582 127.154C100.094 131.384 98.9565 135.718 98.0371 140.107C97.9624 140.464 97.745 140.863 98.1384 141.179C98.6074 141.138 98.8472 140.793 99.113 140.518C100.921 138.652 102.876 136.948 104.913 135.344C109.995 131.344 114.94 127.196 119.407 122.241ZM139.082 142.986C139.245 142.625 139.413 142.267 139.572 141.904C140.923 138.819 142.097 135.743 141.087 132.244C140.675 130.818 140.381 129.344 139.962 127.913C138.736 123.725 136.292 120.219 133.582 116.419C133.786 117.895 133.959 118.971 134.079 120.052C134.46 123.474 134.188 126.897 134.139 130.325C134.059 135.867 134.645 141.383 135.248 146.89C135.373 148.028 135.411 149.176 135.489 150.319C135.594 150.337 135.699 150.355 135.804 150.372C136.871 147.972 137.938 145.571 139.082 142.986Z" fill="#FFFBE9"/>
</g>
<defs>
<clipPath id="clip0_38177_27731">
<rect width="256" height="256" rx="24" fill="white"/>
</clipPath>
</defs>
</svg>
