<svg width="24" height="24" viewBox="0 0 24 24" fill="none" xmlns="http://www.w3.org/2000/svg">
<path d="M16.0013 2L13.7013 4.3C13.1516 4.86079 12.8438 5.61474 12.8438 6.4C12.8438 7.18526 13.1516 7.93921 13.7013 8.5L15.5013 10.3C16.0621 10.8497 16.8161 11.1576 17.6013 11.1576C18.3866 11.1576 19.1405 10.8497 19.7013 10.3L22.0013 8" stroke="#071522" stroke-width="1.5" stroke-linecap="round" stroke-linejoin="round"/>
<path d="M14.9997 15.0008L3.29967 3.30078C2.90056 3.69184 2.58348 4.1586 2.36702 4.67373C2.15056 5.18887 2.03906 5.74202 2.03906 6.30078C2.03906 6.85955 2.15056 7.4127 2.36702 7.92783C2.58348 8.44296 2.90056 8.90973 3.29967 9.30078L10.5997 16.6008C11.2997 17.3008 12.5997 17.3008 13.3997 16.6008L14.9997 15.0008ZM14.9997 15.0008L21.9997 22.0008" stroke="#071522" stroke-width="1.5" stroke-linecap="round" stroke-linejoin="round"/>
<path d="M2.10156 21.8L8.50156 15.5" stroke="#071522" stroke-width="1.5" stroke-linecap="round" stroke-linejoin="round"/>
<path d="M19 5L12 12" stroke="#071522" stroke-width="1.5" stroke-linecap="round" stroke-linejoin="round"/>
</svg>
