<svg width="24" height="24" viewBox="0 0 24 24" fill="none" xmlns="http://www.w3.org/2000/svg">
<path d="M17 8H18C19.0609 8 20.0783 8.42143 20.8284 9.17157C21.5786 9.92172 22 10.9391 22 12C22 13.0609 21.5786 14.0783 20.8284 14.8284C20.0783 15.5786 19.0609 16 18 16H17" stroke="#071522" stroke-width="1.5" stroke-linecap="round" stroke-linejoin="round"/>
<path d="M3 8H17V17C17 18.0609 16.5786 19.0783 15.8284 19.8284C15.0783 20.5786 14.0609 21 13 21H7C5.93913 21 4.92172 20.5786 4.17157 19.8284C3.42143 19.0783 3 18.0609 3 17V8Z" stroke="#071522" stroke-width="1.5" stroke-linecap="round" stroke-linejoin="round"/>
<path d="M4 4C4 3.73478 4.10536 3.48043 4.29289 3.29289C4.48043 3.10536 4.73478 3 5 3C5.26522 3 5.51957 2.89464 5.70711 2.70711C5.89464 2.51957 6 2.26522 6 2" stroke="#071522" stroke-width="1.5" stroke-linecap="round" stroke-linejoin="round"/>
<path d="M10 4C10 3.73478 10.1054 3.48043 10.2929 3.29289C10.4804 3.10536 10.7348 3 11 3C11.2652 3 11.5196 2.89464 11.7071 2.70711C11.8946 2.51957 12 2.26522 12 2" stroke="#071522" stroke-width="1.5" stroke-linecap="round" stroke-linejoin="round"/>
<path d="M16 4C16 3.73478 16.1054 3.48043 16.2929 3.29289C16.4804 3.10536 16.7348 3 17 3C17.2652 3 17.5196 2.89464 17.7071 2.70711C17.8946 2.51957 18 2.26522 18 2" stroke="#071522" stroke-width="1.5" stroke-linecap="round" stroke-linejoin="round"/>
</svg>
