<svg version="1.1" xmlns="http://www.w3.org/2000/svg" style="display: block;" viewBox="0 0 1231 2048" width="387" height="644" preserveAspectRatio="none">
<defs>
	<linearGradient id="Gradient1" gradientUnits="userSpaceOnUse" x1="817.37" y1="388.729" x2="833.959" y2="387.241">
		<stop class="stop0" offset="0" stop-opacity="0.952941" stop-color="rgb(0,0,0)"/>
		<stop class="stop1" offset="1" stop-opacity="1" stop-color="rgb(0,0,0)"/>
	</linearGradient>
	<linearGradient id="Gradient2" gradientUnits="userSpaceOnUse" x1="370.824" y1="607.359" x2="368.311" y2="542.491">
		<stop class="stop0" offset="0" stop-opacity="0.960784" stop-color="rgb(0,0,0)"/>
		<stop class="stop1" offset="1" stop-opacity="1" stop-color="rgb(0,0,0)"/>
	</linearGradient>
	<linearGradient id="Gradient3" gradientUnits="userSpaceOnUse" x1="527.77" y1="738.002" x2="522.661" y2="742.326">
		<stop class="stop0" offset="0" stop-opacity="0.94902" stop-color="rgb(0,0,0)"/>
		<stop class="stop1" offset="1" stop-opacity="1" stop-color="rgb(0,0,0)"/>
	</linearGradient>
	<linearGradient id="Gradient4" gradientUnits="userSpaceOnUse" x1="1187.41" y1="1103.03" x2="1146.94" y2="1092.82">
		<stop class="stop0" offset="0" stop-opacity="0" stop-color="rgb(0,0,0)"/>
		<stop class="stop1" offset="1" stop-opacity="0.0588235" stop-color="rgb(0,0,0)"/>
	</linearGradient>
	<linearGradient id="Gradient5" gradientUnits="userSpaceOnUse" x1="1020.52" y1="596.039" x2="1042.51" y2="602.489">
		<stop class="stop0" offset="0" stop-opacity="0.964706" stop-color="rgb(0,0,0)"/>
		<stop class="stop1" offset="1" stop-opacity="1" stop-color="rgb(0,0,0)"/>
	</linearGradient>
</defs>
<path transform="translate(0,0)" fill="rgb(0,0,0)" fill-opacity="0.980392" d="M 464.323 554.295 C 449.307 516.768 444.426 497.877 452.887 457.133 C 458.029 432.371 463.735 414.577 474.344 391.319 C 477.745 383.863 478.694 352.189 483.837 347.547 C 490.35 347.638 496.603 351.757 502.951 353.16 C 516.102 356.066 529.993 356.701 542.933 360.394 C 557.298 364.494 608.94 391.733 619.185 402.121 C 623.612 406.609 627.136 412.009 630.133 417.535 C 630.374 409.064 624.978 362.519 627.006 359.508 C 634.579 355.936 664.091 362.425 673.025 364.856 C 723.113 378.486 769.179 412.057 791.61 459.648 C 796.432 469.877 799.978 481.03 803.561 491.44 C 834.075 431.741 888.057 400.837 950.008 381.003 C 952.138 380.321 953.125 380.12 955.435 380.4 C 956.81 381.367 957.776 381.574 957.721 382.884 C 957.3 393.001 949.689 402.881 948.458 413.625 C 945.019 446.405 943.155 479.331 942.87 512.289 C 978.147 484.929 995.164 482.181 1038 471.429 C 1046.88 469.199 1058.76 463.32 1067.53 460.356 C 1061.14 503.863 1069.71 543.56 1065.05 586.265 C 1061.02 623.2 1047.23 663.26 1019.22 689.175 C 1037.28 699.038 1052.53 712.131 1070.33 720.348 C 1084.84 727.044 1091.76 721.891 1108.39 731.206 C 1081.8 753.055 1082.65 762.341 1068.43 790.993 C 1051.36 825.377 1028.93 858.814 997.647 881.792 C 969.478 902.486 934.823 912.414 904.636 928.449 C 914.934 964.578 908.519 1005.25 908.452 1041.75 C 930.094 1010.29 915.051 938.064 924.626 924.515 L 926.704 924.285 C 933.191 932.533 925.383 1009.34 922.239 1022.69 C 936.525 1010.06 956.122 995.233 972.254 984.689 C 978.773 980.429 991.423 979.995 998.587 977.445 C 1004.87 974.928 1013.97 969.766 1019.67 966.942 C 1029.13 962.25 1061.67 952.317 1071.38 954.909 C 1099.96 962.537 1107.74 965.819 1137.64 955.546 C 1147.68 952.096 1185.61 962.574 1192.41 972.868 C 1205.12 991.154 1209.93 1028.86 1207.23 1050.86 C 1203.15 1084.09 1186.52 1113.98 1164.97 1138.93 C 1158.75 1146.14 1149.8 1154.08 1144.61 1160.34 C 1167.06 1163.03 1180.19 1171.28 1192.28 1190.06 C 1171.99 1174.07 1166.12 1168.85 1139.59 1167.7 C 1131.92 1167.36 1126.17 1166.33 1119.06 1163.28 L 1119.67 1160.71 C 1149.14 1145.07 1141.31 1142.52 1153.68 1116.05 C 1167.99 1085.44 1201.27 1044.72 1192.88 1008.44 C 1186.45 1022.47 1174.65 1028.71 1163.35 1038.64 C 1157.22 1044.02 1149.96 1049.48 1142.52 1052.74 C 1135.33 1055.6 1126.51 1056.01 1119.49 1059.53 C 1100.43 1069.91 1095.96 1084.49 1076.22 1094.86 C 1051.59 1107.8 1031.34 1103.47 1006.38 1109.85 C 990.673 1113.87 973.257 1128.12 955.32 1129.56 C 943.487 1130.5 934.765 1127.55 923.731 1124.18 C 959.214 1166.35 996.413 1188.78 1053.1 1185.11 C 1056.06 1187.21 1061.6 1186.92 1065.42 1187.05 C 1017.37 1195.93 976.547 1179.27 939.934 1149.28 C 942.18 1170.3 940.868 1229.06 934.602 1248.64 C 933.13 1234.04 933.958 1214.77 933.816 1199.36 C 933.674 1184.04 937.729 1161.41 933.768 1146.34 C 932.348 1140.94 925.314 1134.98 921.153 1131.37 C 921.162 1155.62 923.01 1217.66 913.093 1236.82 L 912.347 1236.53 C 912.252 1231.78 914.604 1199.21 915.027 1192.25 C 916.047 1175.45 914.286 1137.98 916.769 1124.09 C 909.999 1119.61 905.814 1117.06 898.597 1113.37 C 885.605 1083.94 896.116 1084.42 900.169 1058.39 C 906.554 1017.39 906.248 971.828 900.394 930.722 C 876.444 933.291 847.833 932.945 823.77 932.865 C 840.489 942.279 855.273 950.522 867.32 965.941 C 891.399 996.762 894.971 1039.54 889.761 1077.06 C 887.135 1095.97 890.667 1113.68 892.186 1132.43 C 895.588 1171.94 898.524 1213.67 905.764 1252.68 C 921.284 1253.92 943.921 1257.1 954.765 1269.29 C 968.805 1285.07 952.541 1316.92 968.293 1330.31 C 997.47 1355.11 1027.73 1336.02 1054.52 1372.02 C 1056.18 1388.28 1054.05 1397.21 1048.84 1412.72 C 1048.47 1413.82 1051.01 1416.81 1051.73 1417.61 C 1047.16 1429.84 952.436 1456.35 932.576 1474.23 C 937.492 1530.56 936.294 1585.66 928.272 1641.74 C 924.102 1670.9 926.024 1698.2 923.752 1726.67 C 917.991 1798.85 920.282 1867.22 937.005 1937.76 C 943.842 1898.38 946.725 1860.06 953.855 1820.63 C 961.643 1777.57 967.536 1733.97 977.576 1691.26 C 991.904 1628.96 1008.61 1567.23 1027.66 1506.21 C 1045.19 1450.1 1067.62 1391.68 1075.65 1333.02 C 1080.59 1296.9 1076.49 1247.74 1073.49 1210.56 C 1063.97 1223.08 1048.24 1246.18 1044.68 1260.97 L 1045.44 1262.34 C 1048.34 1261.42 1048.96 1260.88 1051.46 1259.1 L 1053.92 1259.05 C 1055.45 1261.17 1054.96 1260.57 1054.95 1263.77 C 1051.6 1270.2 1040.56 1272.84 1036.89 1265.11 C 1037.12 1260.24 1049.35 1240.89 1052.28 1235.27 C 1060.55 1219.38 1073.57 1195.86 1090.82 1188.57 C 1111.3 1194.22 1128.03 1207.78 1142.22 1223.15 C 1142.78 1223.76 1143.18 1225.3 1143.38 1226.06 L 1142.62 1227.23 C 1129.18 1220.57 1105.96 1189.18 1088.86 1194.37 C 1085.56 1195.37 1082.16 1198.58 1080.67 1201.68 C 1077.29 1208.72 1083.23 1281.31 1083.08 1296.08 C 1082.96 1310.8 1081.55 1325.47 1078.88 1339.94 C 1075.1 1359.89 1070.22 1380.15 1065.07 1399.78 C 1062.32 1410.23 1059.63 1422.98 1056.07 1433.05 C 1025.32 1519.92 1001.68 1608.96 979.709 1698.4 C 974.979 1718.01 973.35 1739.53 969.254 1759.41 C 960.978 1804.02 952.375 1849.68 948.542 1894.91 C 946.049 1924.3 938.149 1942.6 944.828 1971.62 C 930.075 1949.76 922.276 1899.22 919.525 1873.11 C 914.651 1826.84 916.333 1778.65 915.106 1731.97 C 913.627 1675.72 912.734 1619.26 911.778 1563 C 910.98 1515.98 913.623 1469.17 910.67 1422.02 C 909.255 1399.43 906.909 1376.96 905.503 1354.44 C 904.368 1336.25 905.299 1317.61 903.652 1299.25 C 899.502 1252.99 893.414 1207.09 888.56 1160.93 C 887.091 1146.97 887.454 1134.21 886.451 1120.95 C 879.889 1129.36 877.813 1132.98 874.11 1143.28 C 879.898 1163.56 880.053 1170.78 881.744 1191.28 C 890.03 1291.79 893.89 1391.38 891.503 1492.22 C 891.421 1495.7 890.885 1502.29 893.623 1504.26 C 897.766 1504.16 902.376 1501.96 906.319 1500.39 C 892.86 1513.44 891.216 1508.34 890.942 1526.25 L 889.119 1686.41 C 888.598 1763.41 886.103 1837.94 900.518 1913.83 C 905.944 1942.4 906.092 1956.03 918.857 1983.14 C 903.072 1969.16 907.005 1963.51 898.272 1948.39 C 876.558 1910.8 867.929 1868.23 851.308 1829.38 C 834.648 1790.44 795.297 1723.71 763.51 1696.26 C 751.929 1701.32 741.846 1707.96 730.082 1712.44 C 760.288 1732.79 779.64 1761.82 798.337 1792.55 C 837.489 1856.88 863.146 1929.94 872.233 2004.98 C 864.115 1988.94 853.819 1939.23 847.991 1918.57 C 829.364 1852.53 780.115 1757.01 726.393 1714.06 C 690.357 1727.99 660.221 1714.76 621.352 1718.06 C 626.673 1724.28 631.47 1730.95 636.684 1737.28 C 654.761 1759.23 676.911 1777.56 695.798 1798.69 C 705.57 1809.63 715.482 1824.1 723.206 1836.59 C 761.725 1898.89 807.77 1958.57 838.831 2025.08 C 831.63 2017.74 826.144 2009.09 821.164 2000.13 C 810.953 1981.76 800.192 1964.25 788.662 1946.71 C 771.578 1921.13 754.674 1895.42 737.953 1869.59 C 725.01 1849.52 710.914 1826.31 696.306 1807.79 C 682.822 1790.69 663.403 1774.62 648.597 1758.73 C 637.685 1747.02 627.56 1731.91 616.251 1720.61 C 611.407 1720.85 602.401 1720.97 598.093 1722.31 C 598.624 1724.78 602.811 1727.66 605.04 1728.94 C 628.134 1742.21 644.893 1764.97 662.399 1784.64 C 673.915 1797.59 681.513 1817.78 690.757 1830.65 C 723.672 1876.48 759.116 1920.71 787.121 1969.9 C 792.64 1979.6 800.286 1991.59 805.037 2001.58 C 783.162 1980.67 778.097 1962.93 761.413 1938.29 C 746.839 1916.77 730.993 1894.85 715.804 1873.66 C 707.688 1862.34 698.275 1851.31 690.175 1840.01 C 680.999 1827.21 673.592 1810.48 664.891 1797.47 C 646.849 1770.48 616.06 1742.37 590.254 1722.34 C 502.649 1729.23 393.932 1758.87 316.683 1802.54 C 292.179 1816.39 272.495 1834.36 249.94 1850.88 C 233.949 1862.59 218.377 1869.4 201.747 1879.21 C 180.93 1891.5 171.263 1911.75 146.66 1919.01 C 134.296 1916.34 133.439 1912.85 135.222 1900.73 C 139.018 1871.1 242.563 1801.2 179.921 1781.47 C 148.381 1771.54 87.9002 1828.94 53.3522 1814.13 C 23.2683 1801.23 55.6287 1762.7 72.0416 1752.38 C 64.3825 1764.26 42.7814 1786.99 45.4029 1801.52 C 45.8846 1804.15 47.4268 1806.46 49.6663 1807.91 C 57.7222 1813.1 75.8113 1810.14 85.0356 1807.64 C 115.696 1799.33 156.371 1763.92 189.302 1780.18 C 211.187 1790.99 206.041 1811.15 195.745 1828.74 C 191.016 1836.75 185.538 1844.3 179.384 1851.28 C 169.931 1862.02 136.997 1890.64 137.854 1907.97 C 137.916 1909.23 140.374 1912.63 141.887 1913.36 C 143.349 1914.35 145.387 1914.44 146.945 1913.61 C 169.974 1901.28 186.993 1879.94 207.264 1863.89 C 217.411 1855.86 232.246 1854.8 242.999 1847.56 C 260.589 1835.72 276.644 1821.71 293.831 1809.3 C 320.959 1789.09 352.348 1776.6 383.52 1764.28 C 465.074 1732.02 550.948 1717.84 638.131 1712.74 C 662.245 1711.33 686.743 1718.48 710.226 1712.59 C 739.113 1705 765.832 1688.27 787.626 1668.07 C 823.502 1634.82 849.679 1587.89 867.753 1542.8 C 869.642 1538.09 873.506 1527.46 880.377 1530.33 C 880.751 1535.1 873.282 1547.03 871.141 1552 C 846.731 1608.6 816.147 1653.24 768.009 1692.28 C 812.195 1736.11 846.251 1799.64 868.095 1858 C 877.931 1884.28 882.947 1915.95 900.539 1938.22 C 876.682 1839.14 881.838 1731.79 883.603 1630.64 C 884.125 1600.75 883.156 1570.84 884.898 1540.91 C 885.534 1529.98 883.067 1518.45 885.557 1507.43 C 886.232 1503.7 887.652 1497.04 886.807 1493.62 L 885.217 1493.4 C 865.627 1512.72 854.097 1536.14 821.688 1520.65 C 805.235 1512.78 759.783 1468.89 748.684 1505.44 C 745.218 1516.85 744.733 1532.94 741.865 1545.53 C 736.879 1550.95 730.92 1555.29 723.069 1555.33 C 715.51 1555.37 707.664 1546.19 708.02 1538.76 L 708.833 1538.45 C 711.327 1541.95 712.239 1544.6 713.857 1548.56 C 720.426 1549.2 729.651 1551.05 735.184 1547.8 C 744.863 1536.59 733.645 1496.98 758.555 1486.3 C 770.459 1487.59 775.151 1488.1 786.361 1493.36 C 809.873 1504.39 832.976 1534.86 859.494 1512.61 C 868.994 1504.63 877.32 1493.55 884.598 1483.59 C 886.016 1462.48 884.416 1441.33 885.325 1420.5 C 888.986 1336.69 878.291 1254.06 872.946 1170.6 C 872.556 1164.5 872.156 1158.11 871.596 1152.02 C 864.472 1162.79 856.928 1173.27 848.981 1183.45 C 843.48 1190.49 834.895 1200.46 830.323 1207.6 C 818.764 1225.63 814.497 1241.27 799.722 1258 C 795.024 1263.31 773.522 1281.79 773.669 1285.2 C 777.035 1289.02 783.196 1289.32 788.074 1289.6 C 805.172 1290.55 824.033 1290.54 840.816 1286.65 C 850.711 1284.35 859.313 1280.97 869.614 1279.69 C 847.438 1297.99 815.462 1297.81 787.954 1295.94 C 776.61 1295.17 757.605 1292.09 747.929 1286.65 C 728.958 1275.98 727.251 1256.12 700.836 1262.78 C 691.676 1265.09 683.129 1269.37 675.791 1275.32 C 650.931 1295.49 655.59 1328.87 627.662 1347.86 C 620.584 1352.67 612.238 1355.99 604.47 1359.52 C 583.787 1368.91 569.314 1371.83 546.744 1369.67 C 514.071 1366.54 416.408 1339.53 392.747 1359 C 385.206 1365.2 383.04 1377.22 379.309 1385.89 C 375.17 1385.85 366.175 1385.19 362.992 1386.89 L 357.093 1386.21 C 325.74 1383.34 283.48 1396.11 255.265 1410.97 C 249.261 1414.56 244.103 1425.07 238.818 1428.81 C 220.782 1441.59 204.62 1456.04 187.589 1470.03 C 180.718 1475.67 171.742 1480.38 164.372 1485.57 C 154.934 1492.21 144.81 1498.49 136.712 1506.84 C 107.997 1536.62 142.816 1576.8 126.575 1610.33 C 120.202 1623.49 109.328 1634.22 99.1776 1644.74 C 75.199 1669.6 54.6991 1694.94 47.8036 1729.47 C 53.4197 1750.21 60.9499 1741.58 73.1043 1748.77 L 72.6968 1749.97 C 63.0068 1753.4 55.914 1749.55 48.135 1743.6 C 44.8361 1741.08 41.2956 1734.01 41.8265 1729.79 C 46.87 1689.68 80.0931 1655.46 106.635 1627.16 C 136.603 1596.48 121.969 1572.36 119.047 1536.46 C 118.762 1526.97 120.576 1516.79 126.969 1509.18 C 148.366 1483.68 180.343 1471.13 204.049 1447.03 C 215.132 1435.76 231.815 1429.23 241.489 1415.12 C 244.283 1411.04 251.705 1405.8 255.799 1403.13 C 273.874 1394.27 300.35 1385.04 319.94 1381.25 C 326.17 1380.04 345.773 1379.88 352.303 1379.69 C 338.888 1367.13 330.931 1360.2 322.743 1343.4 C 302.175 1357.07 293.793 1376.7 262.44 1372.6 C 256.067 1371.77 239.654 1371.56 236.043 1367.31 L 236.492 1365.86 C 249.905 1361.75 264.771 1352.81 278.159 1346.87 C 222.566 1331.46 200.33 1315.59 191.155 1258.35 C 189.946 1250.8 181.071 1232.03 178.418 1222.92 C 174.402 1209.14 162.206 1194.38 157.401 1179.97 C 158.423 1175.64 162.409 1181.03 166.936 1177.27 C 169.053 1164.07 149.01 1130.01 154.289 1123.4 C 159.529 1123.78 170.73 1133.18 175.142 1136.41 C 203.044 1156.89 231.932 1167.87 260.294 1188.93 C 260.547 1182.38 259.104 1165.43 261.798 1161.64 C 264.608 1163.18 265.448 1166.35 266.836 1169.49 C 280.983 1178.46 312.616 1205.34 325.389 1217.17 C 348.994 1239.04 356.657 1272.43 357.106 1303.69 C 372.616 1290.17 372.747 1281.97 381.429 1264.43 C 383.503 1260.24 385.553 1255.48 389.999 1254 C 391.19 1255.05 391.615 1256.16 391.796 1257.72 C 396.227 1295.79 381.579 1321.21 343.531 1328.42 C 345.902 1331.12 347.827 1333.85 349.773 1336.86 C 358.807 1350.87 368.383 1363.69 379.143 1376.45 C 379.766 1371.87 380.476 1366.53 382.282 1362.32 C 394.073 1334.81 448.345 1348.4 470.423 1352.05 C 484.711 1354.41 500.441 1357.78 514.886 1360.03 C 531.172 1362.56 549.317 1364.46 565.782 1363.95 C 574.053 1363.69 586.056 1360.36 593.71 1356.96 C 615.61 1347.26 635.98 1342.63 644.601 1317.83 C 647.328 1309.99 649.699 1301.2 652.798 1293.84 C 659.275 1278.46 678.268 1265.01 693.546 1259.19 C 719.447 1249.32 729.977 1265.57 748.212 1279.85 C 751.043 1282.07 758.424 1285.41 762.11 1287.11 C 747.898 1259.04 736.579 1245.52 710.565 1226.11 C 657.445 1186.48 644.169 1156.13 629.677 1092.8 C 617.198 1105.93 598.112 1120.48 583.134 1130.46 C 545.781 1155.34 471.754 1167.03 428.092 1157.74 C 430.969 1155.64 438.499 1156.23 443.079 1155.89 C 456.424 1156.11 469.727 1156.4 482.883 1155.41 C 558.268 1149.78 633.183 1107.56 653.667 1030.79 C 655.574 1023.64 660.519 986.393 663.061 983.32 L 665.425 983.367 C 670.632 988.404 666.557 1001.09 665.646 1007.55 C 661.243 1038.8 650.889 1059.65 636.187 1086.92 C 647.845 1147.63 660.267 1182.86 710.909 1220.03 C 724.807 1230.92 738.53 1241.47 750.018 1254.97 C 753.998 1259.65 763.983 1279.8 768.483 1280.78 C 772.585 1278.81 778.492 1271.54 781.775 1267.96 C 791.768 1257.05 802.082 1246.21 809.373 1233.23 C 815.1 1223.03 819.438 1211.94 826.031 1202.27 C 840.59 1183 855.975 1170.05 865.637 1146.86 C 884.856 1100.72 894.129 1040.62 875.68 992.833 C 867.712 972.195 852.131 952.533 831.378 944.714 C 821.104 940.843 811.08 938.28 800.868 933.863 L 797.808 921.26 C 793.781 924.491 789.329 927.626 785.14 930.681 C 808.089 946.511 813.938 959.594 826.844 983.905 C 840.799 1010.19 846.661 1169.47 822.454 1179.01 L 821.444 1178.52 C 821.247 1175.68 829.207 1145.54 830.106 1139.14 C 838.339 1080.54 840.894 968.025 779.731 936.365 C 772.65 939.064 757.726 947.454 750.102 951.156 C 714.929 968.234 689.425 978.609 649.867 978.165 C 638.913 997.149 629.271 1007.98 612.028 1021.88 C 593.66 1037.85 566.84 1046.64 547.724 1060.54 C 508.732 1088.9 474.104 1119.78 429.388 1139.84 C 422.591 1142.89 415.171 1148.1 407.924 1151.61 L 406.719 1152.96 L 407.494 1155.99 C 397.003 1156.01 380.998 1161.71 370.248 1163.15 C 362.981 1164.12 360.68 1158.84 350.224 1158.39 C 329.544 1157.5 322.555 1169.41 307.211 1182.04 C 303.685 1179.81 300.335 1176.95 297.072 1174.31 C 300.18 1158.64 308.493 1136.19 312.702 1120.33 C 327.866 1063.19 335.104 1040.18 374.633 995.525 C 369.465 992.227 363.676 989.134 358.299 986.126 C 353.562 979.109 351.455 968.615 346.807 962.805 C 339.191 953.283 328.673 945.099 320.296 935.653 C 299.349 912.034 277.707 876.881 251.576 859.333 C 238.269 850.397 218.759 853.78 203.019 842.822 C 210.309 838.382 229.578 822.308 236.834 816.507 C 268.024 791.572 295.653 770.955 333.15 755.804 C 325.925 746.401 319.606 738.642 314.709 727.754 C 301.837 699.136 299.106 666.064 278.705 640.929 C 272.112 632.807 260.227 623.793 252.042 616.377 L 254.695 613.933 C 263.07 620.277 277.815 616.092 290.359 619.161 C 304.772 622.687 308.154 624.548 320.682 630.66 C 348.695 644.328 358.352 667.803 383.079 684.804 C 398.867 695.66 418.061 698.13 433.966 706.743 C 449.954 715.402 466.52 734.198 482.01 744.483 C 488.556 748.829 496.75 753.052 504.029 756.164 C 508.821 758.212 516.522 759.817 520.61 762.448 L 519.024 763.173 C 484.156 760.928 455.863 724.311 429.156 708.043 C 416.462 701.267 394.458 698.824 383.374 690.374 C 335.36 653.769 336.424 625.156 267.463 623.854 C 295.446 651.375 302.04 670.593 313.206 708.24 C 317.459 722.582 328.037 740.384 336.65 752.637 C 357.054 747.625 371.854 741.332 393.705 738.94 C 433.604 734.574 457.633 742.71 492.515 761.159 C 504.108 766.744 515.958 770.793 526.355 778.576 C 533.104 783.628 536.68 799.513 546.505 799.173 L 547.171 797.496 C 544.371 791.248 542.987 785.443 541.94 778.745 C 538.678 757.878 565.742 717.448 578.516 701.436 C 569.102 699.463 555.132 700.516 548.215 692.783 C 526.523 668.531 527.667 632.539 519.364 602.721 C 515.415 588.539 510.687 578.201 502.869 565.862 C 502.597 575.847 502.959 586.118 502.487 596.104 C 501.248 622.323 498.561 645.17 506.115 670.942 C 510.932 687.453 518.619 703.755 531.474 715.527 C 535.522 719.234 548.874 724.003 550.083 728.387 L 548.506 729.09 C 545.107 728.912 540.071 727.23 537.165 725.497 C 503.369 705.341 493.616 657.566 494.252 621.252 C 494.482 608.175 498.161 592.422 497.992 579.542 C 497.815 566.105 493.103 552.903 489.691 540.152 C 488.627 536.176 488.724 535.851 490.389 533.098 C 496.93 530.165 499.343 525.651 505.806 523.356 C 533.228 513.62 589.463 532.496 614.794 543.18 C 612.891 492.148 616.639 487.743 628.985 440.426 C 608.697 396.91 553.152 383.7 512.891 367.716 C 505.303 364.704 494.263 357.474 487.07 353.018 C 482.967 364.848 482.774 376.356 479.996 388.289 C 477.98 396.952 472.971 408.235 469.462 416.866 C 458.315 444.281 450.904 482.356 454.756 511.81 C 455.988 521.237 464.066 542.394 467.865 551.213 L 466.455 553.853 L 464.323 554.295 z M 612.941 986.277 C 611.379 985.264 610.982 985.373 609.148 985.137 C 606.995 983.5 604.751 983.418 602.022 982.933 C 598.794 982.845 596.378 983.023 593.349 981.916 C 578.106 975.027 572.124 971.767 558.49 961.578 C 543.156 974.877 523.121 973.754 504.259 970.813 C 476.374 966.465 451.82 956.891 432.672 935.351 C 429.739 932.052 424.501 927.312 420.679 925.297 L 420.55 923.2 C 420.755 917.227 405.216 888.286 401.815 879.289 C 394.807 860.747 391.812 848.082 387.267 829.223 C 418.375 823.761 446.298 812.522 476.629 803.875 C 491.013 799.775 514.59 797.244 527.28 791.471 C 525.656 775.959 444.454 744.648 427.978 743.183 C 342.526 735.581 273.804 790.247 212.579 843.415 C 225.812 846.357 244.791 848.594 256.099 855.597 C 283.627 872.643 301.961 905.133 323.278 929.016 C 335.382 942.577 348.93 955.114 359.698 969.915 C 361.791 972.794 361.717 975.65 361.652 978.645 C 361.529 984.289 372.906 989.55 377.753 992.503 C 399.729 973.51 420.283 962.477 449.871 959.644 C 435.662 967.724 418.993 969.983 406.174 978.425 C 374.29 999.421 347.496 1035.29 334.556 1071.2 C 324.992 1097.74 317.231 1127.04 306.985 1153.71 C 305.135 1158.52 303.259 1169.31 305.238 1174.01 L 307.008 1175.13 C 313.735 1171.55 325.991 1157.72 331.793 1156.28 C 352.746 1151.06 377.786 1158.17 398.206 1149.85 C 406.15 1146.61 414.259 1140.67 421.965 1136.76 C 444.908 1125.14 469.031 1113.47 489.727 1098.01 C 507.47 1084.76 523.924 1069.02 542.554 1056.83 C 561.413 1044.49 583.712 1036.83 601.291 1022.71 C 617.688 1009.54 630.327 996.34 641.942 978.896 C 629.751 978.398 620.763 975.652 612.941 986.277 z M 800.583 920.652 C 839.657 929.73 870.496 933.166 909.737 919.38 C 977.472 891.781 1027.87 863.646 1060.06 794.28 C 1072.39 767.718 1075.87 752.406 1096.53 730.229 C 1086.98 729.64 1076.24 728.935 1067.43 725.155 C 1031.33 709.658 1025.42 685.195 979.908 687.484 C 970.549 688.27 950.679 689.49 942.255 692.415 C 918.735 701.285 899.17 718.642 882.038 736.719 C 870.027 749.392 872.598 766.158 869.246 781.649 C 859.351 827.373 846.156 877.861 810.625 910.799 C 807.205 913.97 803.556 917.331 800.583 920.652 z M 561.459 958.539 C 577.087 971.429 581.732 971.931 601.716 972.719 C 639.006 974.995 671.667 977.438 707.056 963.617 C 692.229 960.176 679.135 961.172 665.538 958.522 C 684.573 955.136 700.575 959.354 719.987 956.744 C 737.14 954.437 739.343 946.688 751.088 941.466 C 782.524 927.489 806.996 910.231 827.365 881.92 C 840.907 863.098 847.523 842.426 853.12 819.981 C 864.611 781.195 870.564 746.083 864.404 705.603 C 863.933 702.51 863.044 698.09 861.563 695.434 C 859.714 694.783 859.687 694.554 857.839 695.016 C 820 708.766 801.21 731.828 782.481 767.558 C 767.862 795.448 769.587 831.679 761.343 859.026 C 744.129 858.858 728.655 854.541 711.817 852.552 C 698.668 850.998 682.045 856.403 669.219 859.74 C 665.556 860.694 640.88 868.375 639.341 870.692 C 632.295 881.303 630.814 875.123 620.398 880.352 C 593.716 901.148 571.985 925.945 561.459 958.539 z M 734.06 733.164 C 731.464 737.99 729.042 744.223 723.29 745.489 C 716.052 742.101 717.738 725.32 727.48 722.08 C 730.967 722.621 731.337 722.971 734.04 725.282 C 736.586 735.454 749.269 747.968 749.923 755.314 C 751.546 773.559 749.63 778.662 755.737 797.039 C 780.706 757.285 769.016 753.628 772.399 714.066 C 767.62 712.371 763.391 710.397 758.792 708.309 C 762.994 700.836 765.726 697.872 771.267 691.51 C 762.073 669.586 756.103 638.094 734.237 623.852 C 728.114 624.478 716.408 629.487 709.706 631.447 C 701.924 633.723 683.511 636.541 677.115 640.347 C 666.782 646.496 656.112 655.809 644.92 660.973 C 638.789 663.802 625.35 663.846 621.099 668.707 C 607.729 683.995 613.906 693.028 592.418 700.963 C 575.928 707.052 556.948 747.346 549.599 763.653 C 546.523 772.438 545.328 779.687 549.695 788.046 C 555.725 799.588 564.64 807.653 575.285 814.569 C 585.669 821.315 596.373 827.53 607.932 831.853 C 611.437 833.164 613.469 833.146 616.595 831.528 C 616.445 825.669 617.113 810.675 626.757 813.997 L 627.556 817.789 C 623.218 821.027 622.473 821.488 620.161 826.321 C 624.05 827.873 625.685 822.778 628.163 820.666 L 629.003 824.011 C 628.462 827.899 625.848 830.572 623.405 833.724 C 630.498 835.991 645.411 838.391 653.282 839.871 C 651.267 833.55 644.007 813.192 643.913 807.907 L 645.058 807.209 C 654.705 812.811 647.857 826.267 674.419 840.092 C 693.87 838.031 708.649 833.079 726.884 825.833 C 715.438 821.104 685.334 812.426 698.803 793.435 C 701.025 790.301 704.342 786.352 708.366 786.445 C 710.617 789.909 712.154 797.708 713.244 802.046 C 709.784 804.474 707.807 804.95 706.676 808.466 C 708.774 814.44 722.561 819.39 729.525 823.05 C 734.034 820.592 747.96 809.202 749.77 805.005 C 753.375 796.65 742.708 770.307 740.676 761.387 C 738.394 751.374 736.231 742.415 734.06 733.164 z M 1192.11 978.647 C 1178.53 966.507 1163.22 961.589 1145.01 962.662 C 1132.08 963.423 1119.95 969.002 1106.86 968.73 C 1092.17 968.424 1077.95 958.729 1063.06 962.298 C 1039.67 966.406 1023.08 971.637 1002.32 983.936 C 996.532 987.364 979.909 988.275 975.046 991.307 C 941.136 1012.46 894.725 1052.18 899.611 1096.69 C 902.203 1120.3 940.044 1127.1 958.47 1122.94 C 978.187 1117.72 992.706 1105.86 1014.19 1101.33 C 1040.54 1099.98 1067.94 1098.09 1088.31 1078.71 C 1098.23 1069.28 1101.42 1064.05 1113.71 1056.12 C 1121.76 1050.92 1139.72 1047.96 1143.05 1045.81 C 1151.58 1040.3 1171.74 1022.29 1180.22 1015.29 C 1189.13 1007.94 1191.42 989.743 1192.11 978.647 z M 804.825 493.461 C 808.052 508.944 810.043 526.649 814.153 541.313 C 815.521 546.194 827.004 559.904 830.452 566.668 C 843.157 591.586 852.333 618.163 861.104 644.706 C 869.792 671 861.748 707.858 883.699 730.038 C 889.468 724.027 893.397 717.013 898.964 711.528 C 907.532 704.095 917.041 699.215 924.423 690.376 C 930.929 682.584 931.417 672.231 935.064 664.09 C 953.208 623.585 942.543 587.067 938.177 545.003 C 936.116 525.154 937.718 499.303 938.198 477.919 C 938.96 463.209 939.269 448.479 939.123 433.75 C 929.091 460.246 918.507 483.995 916.022 512.859 C 913.193 541.128 919.987 568.858 920.785 596.959 C 921.66 627.732 920.041 662.252 911.116 691.914 C 909.697 696.633 899.431 709.741 892.663 707.213 C 886.371 699.49 889.993 663.498 895.275 656.265 L 896.628 656.54 C 897.648 665.995 887.935 694.822 893.938 702.772 C 896.446 702.768 896.7 702.639 898.574 700.523 C 907.913 689.977 910.286 674.043 912.346 660.543 C 918.893 617.723 913.273 574.324 909.626 531.497 C 906.501 494.813 921.564 463.067 933.332 429.346 C 937.486 417.441 940.166 405.227 945.902 394.013 C 947.359 391.163 948.884 389.548 949.939 386.427 L 948.598 386.221 C 889.848 408.271 838.494 438.934 804.825 493.461 z M 451.389 945.964 C 476.971 963.142 527.522 979.18 553.944 957.021 C 567.292 922.433 584.063 906.658 610.249 880.381 C 568.403 858.289 578.532 873.359 541.658 867.243 C 554.413 862.759 575.423 857.575 588.091 863.593 C 596.597 867.633 606.363 875.774 616.831 873.038 C 617.856 869.684 613.799 864.98 617.931 863.914 C 637.254 858.929 665.566 857.944 684.212 849.637 C 671.725 849.396 665.584 852.205 654.471 851.727 C 650.889 851.574 643.034 844.475 637.796 843.032 C 625.599 839.673 612.407 839.871 600.758 834.978 C 566.868 820.742 560.631 802.713 521.482 801.451 C 511.938 801.684 503.103 803.009 493.803 805.132 C 486.328 806.839 397.948 833.505 397.552 833.784 C 394.641 839.766 405.166 851.488 408.289 857.981 C 418.69 879.602 428.765 901.397 450.599 913.843 C 484.161 935.2 515.013 930.061 552.356 926.318 C 554.18 926.135 555.307 926.416 556.467 927.73 C 551.553 932.684 535.932 934.149 528.867 935.148 C 494.09 940.065 455.609 929.761 430.457 904.596 C 422.89 897.025 416.05 887.426 409.696 878.892 C 413.984 902.737 432.494 931.297 451.389 945.964 z M 618.693 544.484 L 619.24 545.177 C 632.722 562.081 656.395 579.961 666.098 600.742 C 670.669 610.531 673.587 622.835 677.323 633.133 C 687.498 629.647 696.723 629.671 707.232 627.673 C 715.023 626.193 721.061 623.203 728.406 620.534 C 739.053 621.116 741.439 624.095 750.474 630.15 C 751.8 611.327 747.413 599.727 747.822 585.664 C 749.537 526.8 749.308 486.208 716.68 433.617 C 707.715 419.167 702.419 407.508 690.521 392.925 C 678.958 378.754 646.825 364.242 629.728 361.335 C 639.271 411.279 642.512 433.398 623.371 480.744 C 618.65 492.423 618.621 531.073 618.693 544.484 z M 952.634 627.301 C 956.378 615.186 962.775 593.462 967.905 582.514 C 965.325 607.419 956.769 624.117 947.959 647.225 C 945.216 656.102 938.516 680.395 934.966 687.225 C 961.763 681.757 988.348 678.032 1015.18 686.754 C 1021.62 678.453 1039.28 654.829 1043.43 645.054 C 1057.07 612.916 1065.89 563.823 1061.03 528.638 C 1059.36 516.522 1058.41 508.977 1058.2 496.839 C 1058.1 490.836 1060.22 476.002 1059.69 473.016 L 1058.03 472.256 C 1022.53 482.121 967.251 489.73 945.596 521.52 C 938.712 531.626 952.047 610.323 952.634 627.301 z M 174.718 1181.75 C 206.91 1200.25 244.662 1199.94 263.31 1237.21 C 254.549 1231.51 249.041 1223.42 240.927 1217.2 C 229.779 1208.65 191.05 1192.33 177.277 1194.83 C 176.073 1195.67 174.797 1196.11 174.632 1197.73 C 173.665 1207.17 191.152 1241.28 194.807 1252.55 C 199.241 1266.23 199.836 1281.17 205.161 1294.48 C 207.775 1301.01 211.775 1306.82 216.653 1311.87 C 219.672 1314.99 223.288 1317.8 226.931 1320.17 C 244.789 1331.85 265.736 1342.69 287.742 1338.16 C 296.562 1336.35 305.074 1333.22 313.87 1331.3 C 311.052 1328.74 308.035 1325.8 304.745 1323.88 C 296.024 1318.79 280.218 1315.71 276.463 1305.19 C 281.07 1304.78 287.317 1310.3 290.89 1312.94 C 269.385 1283.16 267.739 1262.42 265.504 1226.67 C 264.901 1217.02 264.728 1206.53 261.807 1197.25 C 240.005 1177.3 213.638 1167.37 188.998 1152.16 C 179.681 1146.4 170.883 1136.89 160.544 1133.47 C 166.426 1148.8 172.914 1165.3 174.718 1181.75 z M 965.521 1407.32 C 945.913 1412.09 931.904 1419.74 917.523 1433.87 C 917.127 1447.8 917.803 1461.87 916.805 1475.76 C 929.711 1467.24 942.99 1457.92 957.741 1452.89 C 981.456 1444.58 1004.73 1435.86 1026.68 1423.46 C 1006.75 1416.39 987.187 1406.41 965.521 1407.32 z M 363.233 1380.94 C 365.743 1380.42 367.974 1380.5 369.612 1378.43 C 367.533 1368.42 346.764 1339.42 338.926 1332.7 C 337.492 1332.28 336.119 1331.81 334.612 1331.8 C 332.143 1333.31 328.644 1334.78 327.57 1337.58 C 331.475 1346.55 351.427 1376.57 359.918 1379.97 C 360.995 1380.4 362.103 1380.68 363.233 1380.94 z M 774.602 500.792 C 783.658 509.958 795.841 522.914 805.241 531.303 C 803.188 484.779 784.637 445.664 751.12 412.552 C 737.634 399.229 690.358 371.31 673.218 369.93 C 678.851 374.984 688.755 382.46 693.179 387.474 C 700.214 395.447 707.397 407.701 713.081 416.82 C 732.895 448.604 750.961 486.249 752.9 524.234 C 753.53 536.581 753.442 550.786 754.984 562.955 C 760.759 548.781 765.434 536.525 768.907 521.467 C 769.76 517.769 772.764 503.229 774.602 500.792 z M 928.335 1477.74 C 925.657 1479.33 921.882 1481.16 920.134 1483.78 C 915.026 1491.43 920.268 1599.8 922.613 1613.41 L 922.395 1614.93 L 921.52 1615.26 L 921.336 1617.54 L 920.484 1613.2 L 919.123 1613.12 C 917.12 1615.8 916.768 1616.18 916.282 1619.46 L 917.006 1621.16 L 918.686 1621.47 L 919.359 1617.97 C 921.234 1619.25 921.744 1619.96 923.213 1621.61 C 923.654 1623.85 924.052 1624.39 925.087 1626.36 C 931.979 1617.56 928.47 1495.33 928.335 1477.74 z M 617.159 661.934 C 621.424 663.478 644.635 654.927 649.262 652.493 C 654.761 649.6 667.142 640.478 671.857 636.127 C 672.625 631.821 667.996 627.24 666.903 623.58 C 663.313 611.553 661.093 602.971 653.876 592.482 C 625.804 551.688 593.447 534.636 545.068 527.352 C 529.184 524.378 511.741 526.275 498.545 535.572 C 497.568 536.262 496.609 536.978 495.669 537.719 C 499.293 551.316 511.947 567.499 518.486 581.598 C 535.002 617.205 526.096 667.195 557.861 693.649 C 595.599 699.644 597.907 699.094 615.016 664.429 L 617.159 661.934 z M 755.288 623.249 L 753.462 633.093 C 764.25 650.124 764.949 655.462 771.157 673.729 C 781.083 702.935 785.396 725.23 778.66 755.957 C 804.735 724.742 820.896 697.358 863.121 689.032 C 860.663 675.018 859.286 660.559 856.425 646.756 C 854.092 635.502 848.772 623.973 845.066 613.096 C 832.595 575.387 811.36 542.018 781.615 515.554 C 780.689 514.731 778.482 513.785 777.36 513.4 C 777.654 526.016 785.847 535.106 790.98 546.496 C 795.526 556.586 798.163 567.243 802.298 577.303 C 804.919 583.678 811.479 592.033 814.235 598.604 C 826.352 627.489 834.207 671.934 817.444 700.101 C 827.627 643.493 824.878 634.527 799.433 580.1 C 790.462 560.913 785.09 547.354 773.543 527.532 C 770.951 535.587 768.782 547.094 766.067 554.204 C 756.432 579.436 755.725 596.422 755.288 623.249 z M 758.221 857.38 C 758.353 845.192 768.189 799.567 764.726 795.839 C 739.945 830.638 729.523 833.074 689.753 842.598 L 707.238 845.848 C 722.082 849.409 745.188 853.265 758.221 857.38 z M 1129.19 1163.52 C 1132.29 1162.78 1135.74 1162.1 1138.46 1160.36 C 1151.04 1152.3 1170.17 1125.7 1178.23 1112.56 C 1191.23 1091.36 1208.77 1056.22 1202.22 1030.5 C 1201.9 1029.24 1201.43 1028.28 1200.32 1027.54 C 1196.74 1038.84 1194 1050.38 1189.64 1061.43 C 1185.55 1071.76 1180 1081.42 1175.83 1091.69 C 1169.19 1108.08 1165.31 1123.68 1154.75 1138.34 C 1150.82 1143.78 1146.2 1148.69 1141.01 1152.95 C 1137.59 1155.79 1129.4 1159.27 1127.51 1162.53 L 1129.19 1163.52 z M 305.633 1346.56 L 293.97 1347.31 C 279.276 1350.02 264.241 1359.96 251.565 1367.61 L 265.442 1368.05 C 278.426 1367.77 289.985 1365.4 299.279 1355.58 C 301.779 1352.94 303.83 1349.71 305.633 1346.56 z M 622.387 418.286 C 625.24 400.602 573.85 381.063 563.434 374.422 C 541.719 360.579 537.624 364.886 515.725 360.382 L 514.706 361.727 C 518.032 366.413 564.812 381.016 575.077 386.33 C 593.457 395.844 606.021 407.508 622.387 418.286 z M 348.272 1322.19 C 363.833 1317.79 376.185 1305.2 383.964 1291.38 C 388.035 1284.15 389.176 1278.69 387.854 1270.54 L 386.162 1268.54 C 379.676 1286.02 371.991 1296.58 358.271 1309 C 355.353 1311.64 347.217 1317.86 347.774 1321.68 L 348.272 1322.19 z M 267.43 1176.24 C 266.41 1190.34 268.558 1203.98 269.707 1217.99 C 272.212 1248.55 272.009 1281.88 293.265 1306.5 C 300.549 1314.94 313.472 1324.86 325.081 1325.41 C 329.59 1325.62 334.516 1324.1 337.871 1320.99 C 340.029 1319 341.999 1316.7 343.944 1314.5 C 347.296 1310.73 350.56 1306.77 354.241 1303.33 C 350.664 1261.79 340.292 1235.02 307.963 1207.84 C 299.583 1200.79 276.231 1178.61 267.43 1176.24 z M 905.552 1258.47 C 909.987 1291.36 908.944 1324.46 910.556 1357.5 C 911.711 1381.19 915.153 1404.81 916.623 1428.52 C 928.68 1413.9 943.246 1403.94 962.591 1402.09 C 986.381 1399.83 1006.23 1412.4 1028.05 1419.11 C 1039.5 1411.55 1047.15 1403.79 1050.05 1389.82 C 1051.56 1382.53 1051.22 1375.13 1046.9 1368.82 C 1028.78 1342.35 984.083 1356.62 963.956 1333.55 C 944.928 1311.74 973.551 1268.54 933.017 1261.69 C 923.944 1260.15 914.688 1259.58 905.552 1258.47 z"/>
<path transform="translate(0,0)" fill="rgb(0,0,0)" fill-opacity="0.980392" d="M 560.256 982.84 L 562.119 983.823 L 561.487 985.335 C 547.173 994.611 527.462 1001.27 511.201 1006.42 L 510.243 1006.89 L 509.206 1006.1 C 509.301 1005.86 509.363 1005.61 509.492 1005.38 C 513.246 998.895 551.704 985.914 560.256 982.84 z"/>
<path transform="translate(0,0)" fill="rgb(0,0,0)" fill-opacity="0.976471" d="M 912.118 816.521 C 904.175 818.697 875.702 834.74 870.338 831.83 C 871.313 829.441 875.888 828.448 879.458 825.916 L 879.609 824.306 C 877.957 822.848 877.076 822 875.591 820.37 L 876.271 818.693 C 881.934 814.871 893.991 813.58 900.974 812.5 C 905.472 815.48 907.587 814.401 912.118 816.521 z"/>
<path transform="translate(0,0)" fill="rgb(0,0,0)" fill-opacity="0.988235" d="M 900.974 812.5 C 914.849 810.439 969.042 794.801 975.651 795.893 C 966.197 802.26 927.262 809.984 912.118 816.521 C 907.587 814.401 905.472 815.48 900.974 812.5 z"/>
<path transform="translate(0,0)" fill="rgb(0,0,0)" fill-opacity="0.988235" d="M 879.726 904.492 C 882.475 904.277 883.056 904.245 885.508 905.507 L 886.329 905.18 L 886.655 906.03 C 882.152 908.944 853.49 910.36 844.582 911.828 C 842.274 912.078 841.144 912.38 839.036 911.31 L 838.231 911.55 L 837.603 911.169 L 839.623 909.994 L 839.647 911.068 L 840.278 909.802 C 853.216 906.713 866.432 904.934 879.726 904.492 z"/>
<path transform="translate(0,0)" fill="rgb(0,0,0)" fill-opacity="0.976471" d="M 875.546 881.432 C 880.889 881.12 898.47 879.824 902.236 882.685 L 901.612 884.032 C 896.181 884.178 878.597 885.395 874.681 882.758 L 875.546 881.432 z"/>
<path transform="translate(0,0)" fill="rgb(0,0,0)" d="M 838.543 841.627 C 839.952 845.552 835.908 860.301 832.367 862.906 C 827.467 855.522 833.267 846.9 838.543 841.627 z"/>
<path transform="translate(0,0)" fill="rgb(0,0,0)" fill-opacity="0.941176" d="M 755.301 916.999 C 761.201 916.586 770.007 918.89 772.422 924.832 C 766.977 923.209 760.076 919.975 755.301 916.999 z"/>
<path transform="translate(0,0)" fill="rgb(0,0,0)" fill-opacity="0.984314" d="M 746.715 648.83 L 747.46 649.725 C 749.936 660.273 726.731 678.646 719.997 685.938 C 713.863 692.582 708.534 700.307 702.391 706.825 C 687.862 722.243 670.406 735.311 653.399 747.861 C 643.702 754.178 629.966 753.352 620.607 759.927 C 611.18 766.548 607.527 781.523 596.337 786.384 C 584.403 791.57 571.317 786.046 559.165 791.469 L 558.153 791.929 L 557.4 791.382 C 557.51 784.421 584.588 783.898 591.427 781.51 C 606.747 776.161 602.278 765.347 618.301 755.23 C 626.657 749.953 640.569 750.536 646.241 747.016 C 664.899 735.435 686.43 715.9 701.293 699.425 C 705.04 695.272 707.791 687.982 710.654 684.755 C 714.556 680.357 724.594 674.766 728.555 670.476 C 734.727 663.791 739.588 656.327 745.924 649.656 L 746.715 648.83 z"/>
<path transform="translate(0,0)" fill="rgb(0,0,0)" fill-opacity="0.988235" d="M 662.829 769.091 C 682.694 768.651 673.434 781.333 678.19 795.689 C 679.917 800.903 683.512 807.514 683.798 812.629 L 682.793 813.519 L 680.666 811.342 C 677.754 806.011 672.746 793.315 668.242 790.381 C 659.318 789.172 659.583 786.208 655.532 778.606 C 658.306 774.253 659.276 772.767 662.829 769.091 z"/>
<path transform="translate(0,0)" fill="rgb(0,0,0)" fill-opacity="0.984314" d="M 654.328 690.852 C 656.168 691.485 655.414 690.928 656.495 692.776 C 654.623 697.719 649.985 700.383 645.629 703.009 C 642.71 701.001 642.306 699.93 642.733 696.874 C 645.247 693.891 650.526 692.333 654.328 690.852 z"/>
<path transform="translate(0,0)" fill="rgb(0,0,0)" fill-opacity="0.980392" d="M 601.588 718.914 C 604.881 718.71 605.576 718.631 608.768 719.379 L 609.669 720.843 C 608.254 723.824 605.467 725.155 602.6 727.058 C 599.62 728.411 600.773 728.384 597.885 727.818 L 597.123 725.505 C 598.451 720.879 597.794 722.385 601.588 718.914 z"/>
<path transform="translate(0,0)" fill="rgb(0,0,0)" d="M 1070.05 1028.19 C 1073.31 1028.46 1077.78 1028.38 1080.78 1029.63 C 1082.6 1030.4 1084.24 1032.25 1084.99 1034.05 C 1086.09 1036.68 1085.81 1039.27 1084.8 1041.87 C 1081.29 1051 1073.12 1055.74 1064.73 1059.56 C 1063.24 1059.11 1061.8 1058.53 1060.36 1057.94 C 1056.39 1056.31 1052.35 1053.98 1050.84 1049.68 C 1049.91 1047.01 1050.38 1044.05 1051.58 1041.54 C 1055.27 1033.8 1062.41 1030.8 1070.05 1028.19 z M 1053.37 1045.56 C 1056.06 1048.6 1059.64 1053.67 1063.97 1054.14 C 1064.98 1054.25 1065.97 1054.18 1066.97 1054.05 C 1071.8 1050.78 1079.37 1046.31 1080.84 1040.24 C 1081.08 1039.27 1080.96 1038.33 1080.86 1037.36 C 1078.85 1034.93 1077.51 1033.83 1074.22 1033.5 C 1072.13 1033.29 1070 1033.24 1067.9 1033.18 C 1062.49 1036.82 1058.35 1041.46 1053.37 1045.56 z"/>
<path transform="translate(0,0)" fill="rgb(0,0,0)" d="M 986.462 1013.58 C 986.845 1013.57 987.227 1013.55 987.609 1013.55 C 991.957 1013.52 997.66 1014.71 1000.75 1017.94 C 1002.64 1019.92 1003.59 1022.65 1003.47 1025.38 C 1003.25 1030.37 999.846 1033.78 996.485 1037.01 C 995.643 1037.21 994.846 1037.39 993.983 1037.49 C 990.043 1037.92 985.394 1037.78 982.29 1034.99 C 980.291 1033.2 979.236 1030.46 979.216 1027.8 C 979.175 1021.97 982.474 1017.43 986.462 1013.58 z M 994.067 1030.74 C 996.17 1028.17 998.297 1026.03 998.371 1022.52 C 997.192 1020.14 996.714 1019.22 994.016 1018.29 C 992.548 1017.78 990.596 1017.73 989.048 1017.58 C 986.785 1020.55 983.977 1024.4 984.7 1028.39 C 984.972 1029.89 985.627 1030.24 986.618 1031.32 C 989.448 1032.15 991.332 1031.5 994.067 1030.74 z"/>
<path transform="translate(0,0)" fill="rgb(0,0,0)" d="M 951.074 1064.67 L 951.989 1065.06 C 953.282 1069.35 945.562 1076.58 946.092 1082.23 L 948.617 1083.31 C 959.535 1081.41 955.197 1069.92 961.097 1065.36 C 963.065 1068.34 963.255 1071.18 963.622 1074.62 C 962.94 1078.98 961.966 1083.24 958.594 1086.36 C 956.194 1088.58 953.236 1089.74 949.957 1089.52 C 946.784 1089.3 944.012 1087.78 942.115 1085.23 C 940.312 1082.8 939.848 1079.69 940.519 1076.78 C 941.856 1070.97 946.395 1067.71 951.074 1064.67 z"/>
<path transform="translate(0,0)" fill="rgb(0,0,0)" fill-opacity="0.988235" d="M 1064.25 979.667 C 1066.74 979.646 1068.13 979.689 1070.28 981.009 C 1069.14 985.933 1061.81 988.657 1061.13 993.124 C 1060.92 994.495 1061.62 994.782 1062.42 995.805 C 1067.14 997.829 1074.88 995.398 1079.88 994.469 L 1081.46 995.851 C 1076.9 999.199 1071.44 1001.83 1065.61 1001.04 C 1062.58 1000.63 1059.34 999.081 1057.55 996.536 C 1056.22 994.645 1055.75 992.514 1056.16 990.24 C 1057.08 985.117 1060.33 982.545 1064.25 979.667 z"/>
<path transform="translate(0,0)" fill="rgb(0,0,0)" fill-opacity="0.984314" d="M 1142.16 989.655 C 1145.22 989.97 1147.4 990.983 1149.72 992.962 C 1152.01 994.92 1152.33 996.53 1152.59 999.305 L 1150.17 1001.99 C 1147.63 1002.09 1144.39 1002.32 1141.96 1001.42 C 1139.48 1000.5 1139.09 999.451 1138.19 997.194 C 1138.46 993.975 1140.24 992.073 1142.16 989.655 z"/>
<path transform="translate(0,0)" fill="rgb(0,0,0)" fill-opacity="0.988235" d="M 1016.73 1058.8 C 1018.1 1059.39 1019.1 1060.44 1020.11 1061.52 C 1024.23 1065.94 1031.6 1066.07 1033.84 1071.71 C 1030.94 1071.56 1027.98 1071.33 1025.1 1070.89 C 1022.31 1070.45 1019.03 1069.35 1017.43 1066.85 C 1015.76 1064.24 1016.03 1061.66 1016.73 1058.8 z"/>
<path transform="translate(0,0)" fill="rgb(0,0,0)" fill-opacity="0.984314" d="M 885.479 625.815 L 886.662 627.968 C 886.314 640.652 883.705 683.088 877.356 693.226 L 876.249 691.925 C 875.535 685.515 883.807 641.33 883.568 630.309 C 883.551 629.492 884.983 626.649 885.479 625.815 z"/>
<path transform="translate(0,0)" fill="rgb(0,0,0)" fill-opacity="0.984314" d="M 595.518 842.417 C 600.903 844.906 599.251 846.312 602.535 850.321 C 604.498 852.717 609.989 852.077 612.693 854.587 L 605.536 857.758 C 595.666 864.955 582.64 855.197 595.518 842.417 z"/>
<path transform="translate(0,0)" fill="rgb(0,0,0)" fill-opacity="0.945098" d="M 703.429 582.343 C 704.947 583.169 704.384 582.802 705.431 584.412 C 705.217 591.599 703.291 595.132 698.918 600.744 L 698.05 600.618 L 697.35 599.063 C 699.198 593.304 701.266 587.973 703.429 582.343 z"/>
<path transform="translate(0,0)" fill="rgb(0,0,0)" fill-opacity="0.945098" d="M 691.229 573.427 C 695.187 575.708 694.657 587.155 694.765 591.432 C 689.533 589.928 691.094 577.96 691.229 573.427 z"/>
<path transform="translate(0,0)" fill="rgb(0,0,0)" fill-opacity="0.894118" d="M 714.005 583.779 C 718.285 586.706 718.792 595.356 718.65 600.074 C 715.241 598.021 714.273 587.826 714.005 583.779 z"/>
<path transform="translate(0,0)" fill="url(#Gradient5)" d="M 1047.41 524.178 C 1048.95 524.739 1049.98 525.369 1051.42 526.142 C 1058.81 535.307 1052.76 559.316 1051.39 570.788 C 1046.15 614.504 1031.76 638.744 1001.66 669.832 L 999.925 671.115 L 998.722 670.287 C 999.043 665.82 1022.5 634.715 1027.46 627.881 C 1043.2 606.198 1052.95 548.981 1047.41 524.178 z"/>
<path transform="translate(0,0)" fill="rgb(0,0,0)" d="M 971.37 617.576 C 972.229 618.343 972.326 618.86 972.919 619.962 C 972.463 635.146 962.043 664.622 953.024 676.161 C 947.838 670.29 967.867 626.386 971.37 617.576 z"/>
<path transform="translate(0,0)" fill="rgb(0,0,0)" fill-opacity="0.988235" d="M 604.333 617.599 L 605.704 619.132 C 606.108 628.497 609.717 635.465 610.307 643.606 L 608.361 645.569 C 604.204 641.273 601.665 635.53 599.056 630.194 C 600.834 626.618 602.78 621.415 604.333 617.599 z"/>
<path transform="translate(0,0)" fill="rgb(0,0,0)" fill-opacity="0.980392" d="M 586.197 632.692 C 591.122 635.419 599.163 662.391 600.438 668.345 C 592.372 664.069 586.487 641.505 586.197 632.692 z"/>
<path transform="translate(0,0)" fill="rgb(0,0,0)" fill-opacity="0.976471" d="M 318.386 1289.46 C 318.532 1289.53 318.683 1289.59 318.822 1289.67 C 322.318 1291.75 337.706 1309.25 338.828 1313.03 C 332.923 1311.89 326.57 1306.22 322.998 1301.57 C 320.116 1297.82 317.767 1294.38 318.386 1289.46 z"/>
<path transform="translate(0,0)" fill="rgb(0,0,0)" fill-opacity="0.980392" d="M 742.766 829.299 C 748.451 828.386 751.579 828.179 756.245 832.106 C 751.822 833.674 746.118 832.642 742.766 829.299 z"/>
<path transform="translate(0,0)" fill="url(#Gradient4)" d="M 1200.32 1027.54 C 1201.43 1028.28 1201.9 1029.24 1202.22 1030.5 C 1208.77 1056.22 1191.23 1091.36 1178.23 1112.56 C 1170.17 1125.7 1151.04 1152.3 1138.46 1160.36 C 1135.74 1162.1 1132.29 1162.78 1129.19 1163.52 L 1127.51 1162.53 C 1129.4 1159.27 1137.59 1155.79 1141.01 1152.95 C 1146.2 1148.69 1150.82 1143.78 1154.75 1138.34 C 1165.31 1123.68 1169.19 1108.08 1175.83 1091.69 C 1180 1081.42 1185.55 1071.76 1189.64 1061.43 C 1194 1050.38 1196.74 1038.84 1200.32 1027.54 z"/>
<path transform="translate(0,0)" fill="rgb(0,0,0)" fill-opacity="0.968627" d="M 420.679 925.297 C 349.249 928.82 335.609 854.244 270.151 844.63 C 263.637 843.673 236.826 846.329 235.312 839.6 L 236.944 838.2 C 244.294 835.976 257.601 837.262 265.177 838.434 C 295.656 843.151 319.747 859.943 340.379 882.06 C 349.804 892.164 360.644 902.098 372.716 909.193 C 389.191 918.875 401.896 920.678 420.55 923.2 L 420.679 925.297 z"/>
<path transform="translate(0,0)" fill="rgb(0,0,0)" fill-opacity="0.968627" d="M 609.148 985.137 C 610.982 985.373 611.379 985.264 612.941 986.277 C 606.539 992.849 561.164 1020.15 551.953 1022.08 C 574.79 1004.78 584.358 998.573 609.148 985.137 z"/>
<path transform="translate(0,0)" fill="rgb(0,0,0)" fill-opacity="0.956863" d="M 593.349 981.916 C 596.378 983.023 598.794 982.845 602.022 982.933 C 585.9 984.918 550.228 1006.22 536.67 1015.98 L 535.587 1015.81 C 544.319 998.453 576.783 990.534 592.272 982.484 L 593.349 981.916 z"/>
<path transform="translate(0,0)" fill="rgb(0,0,0)" fill-opacity="0.854902" d="M 922.613 1613.41 L 923.213 1621.61 C 921.744 1619.96 921.234 1619.25 919.359 1617.97 L 918.686 1621.47 L 917.006 1621.16 L 916.282 1619.46 C 916.768 1616.18 917.12 1615.8 919.123 1613.12 L 920.484 1613.2 L 921.336 1617.54 L 921.52 1615.26 L 922.395 1614.93 L 922.613 1613.41 z"/>
<path transform="translate(0,0)" fill="rgb(0,0,0)" fill-opacity="0.0745098" d="M 627.556 817.789 L 628.163 820.666 C 625.685 822.778 624.05 827.873 620.161 826.321 C 622.473 821.488 623.218 821.027 627.556 817.789 z"/>
<path transform="translate(0,0)" fill="rgb(0,0,0)" fill-opacity="0.843137" d="M 615.016 664.429 C 614.897 660.543 614.092 656.355 615.796 653.227 C 617.54 656.174 617.154 658.447 617.159 661.934 L 615.016 664.429 z"/>
<path transform="translate(0,0)" fill="rgb(0,0,0)" d="M 698.66 981.636 C 699.408 983.227 690.964 1024.96 690.315 1032.06 C 689.702 1038.78 691.54 1045.65 690.761 1051.98 L 688.256 1053.74 C 686.8 1049.6 685.793 1045.38 685.422 1041 C 684.163 1026.13 689.066 992.913 698.66 981.636 z"/>
<path transform="translate(0,0)" fill="rgb(0,0,0)" d="M 738.142 959.722 L 739.474 961.279 C 740.832 967.836 743.94 1013.26 742.559 1017.37 C 736.302 1005.88 733.957 971.805 738.142 959.722 z"/>
<path transform="translate(0,0)" fill="rgb(0,0,0)" fill-opacity="0.972549" d="M 721.226 975.565 C 721.663 976.611 721.976 977.309 722.019 978.458 C 722.309 986.198 719.527 995.945 718.64 1003.89 C 717.088 1017.8 717.534 1032.7 714.398 1046.3 C 714.271 1046.01 714.137 1045.73 714.019 1045.43 C 709.373 1033.9 716.186 987.095 721.226 975.565 z"/>
<path transform="translate(0,0)" fill="rgb(0,0,0)" fill-opacity="0.960784" d="M 496.653 698.644 C 509.249 716.408 510.934 721.011 526.571 737.626 L 524.564 738.044 L 521.915 735.829 C 519.757 736.855 519.459 737.927 518.285 740.026 C 502.801 735.366 488.817 722.934 477.942 711.339 C 486.08 715.503 510.196 734.776 514.476 734.511 C 513.397 729.427 503.128 717.326 500.519 711.582 C 498.38 706.873 497.783 703.741 496.653 698.644 z"/>
<path transform="translate(0,0)" fill="rgb(0,0,0)" fill-opacity="0.964706" d="M 573.334 471.291 L 575.632 472.123 C 578.544 475.139 591.409 499.959 593.784 505.401 C 582.975 502.973 576.359 480.952 573.334 471.291 z"/>
<path transform="translate(0,0)" fill="rgb(0,0,0)" fill-opacity="0.964706" d="M 498.63 370.462 L 500.525 371.247 C 502.781 373.892 517.594 403.191 518.397 406.297 C 509.113 402.998 499.667 379.962 498.63 370.462 z"/>
<path transform="translate(0,0)" fill="rgb(0,0,0)" fill-opacity="0.964706" d="M 510.061 374.666 C 516.103 377.239 523.847 391.609 524.273 397.842 C 518.919 394.933 509.806 380.767 510.061 374.666 z"/>
<path transform="translate(0,0)" fill="url(#Gradient3)" d="M 518.285 740.026 C 519.459 737.927 519.757 736.855 521.915 735.829 L 524.564 738.044 L 526.571 737.626 C 530.653 741.102 533.739 743.967 537.541 747.749 C 531.637 745.505 523.798 742.78 518.285 740.026 z"/>
<path transform="translate(0,0)" fill="rgb(0,0,0)" fill-opacity="0.984314" d="M 709.781 25.3317 C 721.128 29.9751 728.561 38.2003 738.221 43.3676 C 748.47 48.85 761.462 54.7617 772.026 59.8203 C 796.533 71.5552 807.913 83.6154 825.703 103.047 C 805.264 93.8487 799.037 80.367 783.342 71.8611 C 755.883 56.9796 738.641 51.3019 713.627 31.0402 C 711.121 41.1472 708.339 47.5244 704.319 57.0622 C 722.814 67.5885 744.944 73.2052 764.55 81.7862 C 785.949 91.1516 800.343 105.599 817.363 121.004 C 819.51 115.454 821.813 110.571 824.325 105.204 C 825.926 106.615 827.501 108.055 829.049 109.523 C 847.243 126.807 876.51 171.406 885.585 196.12 C 888.816 204.92 889.384 218.057 889.623 227.592 C 889.696 246.941 887.065 267.344 876.248 283.872 C 862.978 304.148 840.365 314.641 820.07 326.034 C 811.93 330.604 805.256 336.584 795.824 338.431 C 777.872 341.946 759.71 335.025 742.321 331.477 C 734.349 329.85 725.907 329.153 718.189 326.584 C 712.304 324.625 706.821 321.507 701.673 318.08 C 672.563 298.706 652.744 256.193 646.1 222.813 C 642.394 204.188 640.964 125.486 650.547 112.342 C 653.061 108.893 656.696 108.684 660.614 108.054 C 667.027 100.472 671.086 63.8919 673.852 52.8839 C 675.452 46.5176 677.262 39.9237 679.297 33.3429 C 687.641 42.8809 691.573 46.7972 701.046 55.2608 C 703.5 46.4487 705.728 33.1294 709.781 25.3317 z M 667.475 122.925 C 677.063 138.771 684.101 168.595 695.699 189.527 C 712.637 220.097 732.666 234.693 750.036 259.517 C 711.718 236.012 678.75 173.517 666.254 130.713 C 662.191 132.762 656.528 135.408 652.761 137.716 C 644.504 198.688 647.421 243.412 685.277 295.131 C 700.407 315.802 720.036 322.65 744.069 328.042 C 729.379 305.211 708.492 285.926 698.865 259.772 C 717.623 275.399 728.027 270.163 750.846 271.686 C 761.071 272.369 784.076 278.189 791.542 285.132 L 792.606 285.699 C 808.799 294.435 815.829 319.952 827.322 318.899 C 834.053 314.939 838.2 308.86 842.515 306.09 C 860.429 294.591 874.328 281.462 878.955 259.013 C 885.743 226.089 884.338 198.792 866.204 169.614 C 850.524 144.384 846.667 135.478 826.295 113.636 C 814.33 178.1 779.965 242.164 825.484 301.41 C 809.106 290.1 802.553 281.002 799.077 260.591 C 790.828 212.153 805.268 171.419 816.939 126.331 C 801.189 116.96 790.845 103.226 775.246 93.5168 C 748.873 77.1015 716.593 73.7348 692.14 54.4183 C 689.261 52.1435 684.726 47.7974 681.779 46.2219 C 677.72 62.3032 668.439 107.435 667.475 122.925 z M 713.672 274.234 C 713.621 275.037 713.571 275.841 713.52 276.645 C 720.892 287.091 734.108 305.274 741.922 314.217 C 752.192 325.972 764.349 333.531 778.869 334.276 C 789.917 334.842 799.261 331.807 808.433 326.763 C 812.514 324.3 814.908 322.95 818.473 319.816 L 818.079 319.47 C 809.639 311.969 804.804 303.225 797.257 295.45 C 776.819 274.398 741.8 273.149 713.672 274.234 z"/>
<path transform="translate(0,0)" fill="rgb(0,0,0)" d="M 1032.13 1170.24 C 1036.95 1169.58 1044.58 1170.19 1048.6 1173.04 L 1048.85 1175.66 C 1044.17 1175.6 1038.32 1175.97 1034.13 1173.57 C 1032.39 1172.58 1032.59 1172.09 1032.13 1170.24 z"/>
<path transform="translate(0,0)" fill="rgb(0,0,0)" fill-opacity="0.929412" d="M 1105.7 1126 C 1111.55 1127.7 1119.11 1137.21 1122.63 1142.14 C 1121.34 1142.06 1120.16 1141.77 1118.97 1141.28 C 1112.92 1138.85 1108.26 1131.72 1105.7 1126 z"/>
<path transform="translate(0,0)" fill="rgb(0,0,0)" fill-opacity="0.988235" d="M 700.667 1533.97 C 701.755 1533.79 702.903 1534.07 703.992 1534.21 L 704.189 1535.27 C 672.224 1559.95 685.968 1581.26 665.72 1607.14 C 658.697 1616.12 648.384 1624.22 638.628 1630.06 C 614.643 1644.42 555.763 1666.64 529.061 1669.77 C 493.666 1673.91 500.94 1665 479.82 1648.64 L 478.914 1647.95 C 462.081 1645 445.427 1646.06 428.546 1644.31 C 417.655 1643.18 407.336 1639.73 396.693 1637.35 C 388.513 1635.52 373.618 1634.14 366.427 1639.26 C 357.363 1645.72 366.92 1665.15 365.2 1674.83 C 361.208 1697.28 330.089 1688.91 315.222 1690.98 C 308.724 1691.88 302.788 1694.64 297.502 1698.47 C 286.464 1706.46 272.635 1721.52 270.525 1735.16 C 268.534 1748.02 277.843 1754.14 284.55 1763.53 C 286.996 1766.95 288.136 1770.94 287.245 1775.12 C 285.341 1784.07 276.252 1792.53 270.422 1799.34 C 261.348 1809.94 252.496 1822.08 242.318 1831.58 C 226.906 1845.96 207.907 1855.2 190.038 1866.01 C 180.289 1871.91 171.039 1878.65 161.434 1884.78 L 160.532 1884.72 L 160.268 1883.18 C 177.901 1861.86 201.751 1855.94 223.446 1840.85 C 238.639 1830.28 265.872 1797.61 277.207 1782.32 C 293.021 1761 268.54 1761.19 265.905 1740.91 C 264.472 1729.88 270.552 1719.25 277.046 1710.86 C 286.792 1698.26 301.003 1685.66 317.921 1686.47 C 324.79 1686.79 331.804 1688.38 338.673 1687.49 C 345.587 1686.59 354.186 1682.74 358.369 1676.92 C 365.142 1667.51 358.127 1658.07 356.968 1648.31 C 356.532 1644.63 357.392 1641.1 359.761 1638.22 C 363.236 1633.99 369.011 1632.74 374.202 1632.17 C 393.804 1630.03 414.014 1639.05 433.488 1640.87 C 448.409 1642.26 465.902 1638.77 479.947 1644.78 C 488.436 1648.41 493.795 1657.55 500.981 1663.19 L 501.857 1663.86 C 534.801 1668.72 565.506 1656.23 595.593 1644.29 C 607.579 1639.54 619.821 1635.06 631.165 1628.89 C 647.964 1619.76 665.357 1605.54 671.289 1586.83 C 674.023 1578.2 675.226 1569.12 677.895 1560.46 C 681.856 1547.6 689.002 1540.21 700.667 1533.97 z"/>
<path transform="translate(0,0)" fill="rgb(0,0,0)" d="M 1090.25 1200.6 C 1091.47 1201.16 1093.08 1201.57 1093.87 1202.66 C 1102.89 1215.2 1102.37 1241.86 1102.28 1256.84 C 1101.79 1339.23 1082.67 1423.17 1059.42 1501.84 C 1038.62 1572.24 1015.93 1636.17 1000.09 1708.33 C 993.283 1739.32 987.343 1770.14 984.295 1801.77 C 981.524 1830.52 981.188 1860.02 976.417 1888.46 L 975.244 1888.32 C 972.449 1885 975.756 1852.86 976.232 1846.96 C 977.931 1825.89 978.78 1804.73 981.159 1783.71 C 983.183 1765.83 986.615 1747.67 990.111 1730.01 C 1008.03 1639.5 1041.5 1553.49 1064.7 1464.4 C 1077.09 1417.15 1086.88 1369.26 1094.01 1320.94 C 1099.62 1280.63 1097.32 1240.57 1090.25 1200.6 z"/>
<path transform="translate(0,0)" fill="rgb(0,0,0)" d="M 953.868 1478.39 C 954.982 1479.27 955.602 1479.62 956.021 1481.05 C 958.543 1489.68 956.752 1509.61 956.595 1519.49 C 956.124 1569.81 953.237 1620.09 947.944 1670.14 C 945.971 1690.63 941.17 1710.88 940.308 1731.46 C 939.585 1748.72 939.577 1766.02 938.925 1783.29 C 938.314 1799.47 937.037 1815.65 937.121 1831.85 C 937.213 1849.67 939.446 1867.48 939.031 1885.3 C 938.924 1889.93 939.064 1895.18 936.726 1899.3 C 936.559 1899.01 936.37 1898.74 936.227 1898.44 C 933.751 1893.25 935.132 1883.14 934.615 1877.26 C 930.212 1827.1 931.189 1775.3 935.349 1725.15 C 937.033 1704.84 940.576 1684.51 942.861 1664.24 C 946.492 1631.85 949.211 1599.36 951.016 1566.82 C 952.39 1545.12 948.43 1496.26 953.868 1478.39 z"/>
<path transform="translate(0,0)" fill="url(#Gradient2)" d="M 252.042 616.377 C 248.757 613.708 246.842 612.864 248.785 608.847 C 309.141 577.212 332.8 531.559 415.106 541.445 C 425.905 542.668 436.192 545.326 446.537 548.547 C 451.691 550.151 459.279 554.001 464.323 554.295 L 466.455 553.853 L 467.865 551.213 C 477.666 568.922 486.334 568.097 495.038 594.131 C 486.135 585.69 480.317 575.563 471.998 566.734 C 459.21 553.522 438.801 550.324 421.441 547.705 C 411.432 546.194 398.672 545.155 388.768 545.566 C 347.346 547.284 310.549 572.592 279.346 597.639 C 272.635 603.025 260.253 607.148 254.695 613.933 L 252.042 616.377 z"/>
<path transform="translate(0,0)" fill="rgb(0,0,0)" d="M 873.106 293.384 C 880.163 292.896 895.706 292.013 901.304 296.164 C 905.815 309.466 850.303 326.415 840.874 329.081 C 844.702 343.855 860.425 412.082 850.502 421.051 C 847.598 419.334 848.498 419.842 846.772 416.232 C 845.761 380.411 841.502 366.816 835.852 333.941 C 831.407 333.823 825.313 334.775 823.184 330.588 C 824.825 327.931 891.486 303.699 900.061 300.144 C 893.244 299.523 876.662 299.288 873.106 293.384 z"/>
<path transform="translate(0,0)" fill="url(#Gradient1)" d="M 810.058 337.585 C 829.064 337.206 828.569 357.765 832.837 370.654 C 839.318 390.227 835.417 421.465 840.761 439.207 C 831 438.581 831.791 427.231 832.282 420.414 C 834.447 390.357 824.032 363.489 810.058 337.585 z"/>
<path transform="translate(0,0)" fill="rgb(0,0,0)" d="M 463.506 1578.43 C 497.544 1577.59 536.153 1581.11 563.299 1603.94 C 548.105 1597.6 533.562 1590.87 517.423 1587.25 C 495.494 1583.52 473.191 1582.5 451.013 1584.22 C 435.898 1585.31 421.022 1587.74 405.819 1587.13 C 423.551 1580.14 444.683 1579.47 463.506 1578.43 z"/>
<path transform="translate(0,0)" fill="rgb(0,0,0)" fill-opacity="0.972549" d="M 1027.77 1193.97 C 1029.34 1194.04 1029.33 1193.95 1030.42 1195.07 C 1027.05 1203.91 996.041 1212.17 988.067 1227.34 C 987.017 1229.33 986.744 1229.61 987.35 1231.76 C 987.676 1231.79 988.001 1231.85 988.329 1231.87 C 993 1232.08 998.962 1225.05 1002.14 1221.96 C 1005.85 1222.1 1009.59 1222.5 1013.3 1222.78 C 1016.86 1219.77 1019.86 1217.3 1024.3 1215.79 L 1025.37 1216.67 L 1023.05 1218.76 C 1019.77 1221.63 1016.46 1224.47 1013.12 1227.27 C 1006.46 1232.79 994.83 1242.64 985.647 1241.13 C 983.109 1240.71 982.558 1239.9 981.215 1237.94 C 980.795 1235.43 980.909 1233.51 981.692 1231.07 C 986.716 1215.47 1013.86 1200.88 1027.77 1193.97 z"/>
<path transform="translate(0,0)" fill="rgb(0,0,0)" fill-opacity="0.988235" d="M 257.126 1727.26 L 257.773 1727.98 L 257.601 1729.46 C 236.755 1737.59 214.828 1741.48 193.627 1748.35 C 180.212 1752.7 167.875 1758.85 155.4 1765.32 L 154.03 1763.47 C 154.252 1762.77 154.263 1762.56 154.784 1761.9 C 166.461 1747.08 236.423 1731.74 257.126 1727.26 z"/>
<path transform="translate(0,0)" fill="rgb(0,0,0)" fill-opacity="0.956863" d="M 496.926 1510.48 C 531.483 1511.18 597.372 1522.42 622.728 1547.37 L 620.011 1547.9 C 588.63 1519.08 533.549 1522.96 496.926 1510.48 z"/>
<path transform="translate(0,0)" fill="rgb(0,0,0)" fill-opacity="0.976471" d="M 1057.4 1193.81 L 1058.38 1194.05 L 1058.9 1195.44 C 1047.41 1215.31 1028.81 1237.4 1014.89 1256.06 C 1013.64 1255.77 1013.68 1255.5 1012.87 1254.58 C 1025.86 1232.48 1037.83 1210.91 1057.4 1193.81 z"/>
<path transform="translate(0,0)" fill="rgb(0,0,0)" d="M 1053.1 1185.11 C 1061.3 1183.87 1083.78 1179.02 1089.87 1174.11 C 1088.77 1169.12 1068.57 1171.88 1063.57 1166.88 L 1065.2 1165.9 C 1072.8 1165.29 1093.38 1166.67 1100.37 1170.26 L 1101.52 1174.43 C 1090.69 1180.28 1077.64 1185.38 1065.42 1187.05 C 1061.6 1186.92 1056.06 1187.21 1053.1 1185.11 z"/>
<path transform="translate(0,0)" fill="rgb(0,0,0)" fill-opacity="0.980392" d="M 1003.64 1258.87 C 1003.92 1258.95 1004.21 1259.03 1004.49 1259.11 C 1008.46 1260.36 1012.3 1261.69 1014.17 1265.72 C 1015.13 1267.8 1015.19 1270.09 1014.37 1272.23 C 1012.69 1276.64 1008.96 1278.4 1004.96 1280.2 C 1000.45 1280.34 997.709 1280.44 994.205 1277.25 C 993.029 1274.56 992.388 1273.18 993.153 1270.16 C 994.571 1264.56 998.958 1261.57 1003.64 1258.87 z M 1001.46 1276.46 C 1005.23 1275.05 1007.72 1273.77 1009.34 1269.77 C 1010.05 1268.01 1009.73 1266.39 1009.36 1264.59 C 1008.19 1262.85 1007.53 1262.16 1005.58 1261.36 C 1002.12 1264.62 997.469 1268.58 996.898 1273.56 L 997.767 1275.39 C 998.987 1275.78 1000.2 1276.23 1001.46 1276.46 z"/>
<path transform="translate(0,0)" fill="rgb(0,0,0)" fill-opacity="0.952941" d="M 831.287 1371.9 L 831.503 1373.45 C 826.628 1386.79 816.276 1396.41 809.752 1408.82 C 801.787 1423.98 798.358 1442.92 787.952 1456.52 L 787.168 1453.95 C 793.91 1429.33 813.776 1390.62 831.287 1371.9 z"/>
<path transform="translate(0,0)" fill="rgb(0,0,0)" d="M 1106.29 1181.2 C 1109.51 1180.85 1112.4 1181.18 1115.55 1181.84 C 1130.99 1185.08 1150.79 1197.62 1159.5 1210.87 C 1158.54 1210.86 1158.41 1210.89 1157.55 1210.77 C 1149.55 1209.7 1138.64 1198.67 1131.31 1194.43 C 1124.13 1190.29 1111.1 1187.7 1106.29 1181.2 z"/>
<path transform="translate(0,0)" fill="rgb(0,0,0)" fill-opacity="0.980392" d="M 1139.49 1235.66 C 1143.79 1236.88 1150.56 1238.41 1152.92 1242.55 C 1152.03 1244.87 1150.74 1244.93 1148.56 1246 C 1145.1 1247.77 1142.09 1249.4 1138.16 1248.23 C 1136.45 1246.78 1135.68 1246.51 1135.46 1244.15 C 1135.15 1240.85 1137.55 1238.07 1139.49 1235.66 z"/>
<path transform="translate(0,0)" fill="rgb(0,0,0)" fill-opacity="0.972549" d="M 176.12 1595.45 C 187.071 1594.71 198.469 1596.5 209.263 1598.24 C 204.829 1599.71 200.464 1599.7 195.837 1599.82 C 188.97 1600.01 182.003 1600.37 175.156 1599.68 C 172.773 1599.44 168.938 1599.41 167.425 1597.55 C 169.958 1595.73 173.099 1595.77 176.12 1595.45 z"/>
<path transform="translate(0,0)" fill="rgb(0,0,0)" fill-opacity="0.956863" d="M 248.747 1784.88 L 249.721 1785.73 L 249.302 1787.46 C 241.831 1795 228.004 1799.37 218.28 1803.4 L 217.175 1801.98 C 220.971 1796.17 241.69 1788.79 248.747 1784.88 z"/>
<path transform="translate(0,0)" fill="rgb(0,0,0)" fill-opacity="0.94902" d="M 779.858 1393.58 C 780.676 1394.33 780.869 1394.16 780.866 1395.17 C 780.851 1401.09 766.713 1419.5 762.905 1424.57 L 761.973 1423.66 C 761.321 1416.07 775.398 1399.47 779.858 1393.58 z"/>
<path transform="translate(0,0)" fill="rgb(0,0,0)" fill-opacity="0.972549" d="M 1176.51 1212 C 1179.23 1212.42 1180.68 1212.33 1182.86 1214.21 L 1182.45 1216.36 C 1179.38 1219.74 1175.88 1221.23 1171.76 1223.07 C 1171 1223.22 1170.41 1223.22 1169.63 1223.14 C 1167.34 1222.91 1167.19 1223.1 1165.73 1221.27 C 1165.82 1220.92 1165.88 1220.57 1165.99 1220.22 C 1167.28 1216.09 1172.94 1213.62 1176.51 1212 z"/>
<path transform="translate(0,0)" fill="rgb(0,0,0)" fill-opacity="0.94902" d="M 407.494 1155.99 L 406.719 1152.96 L 407.924 1151.61 C 415.545 1155.18 434.777 1154.23 443.079 1155.89 C 438.499 1156.23 430.969 1155.64 428.092 1157.74 C 424.725 1157.88 413.137 1156.11 407.494 1155.99 z"/>
<path transform="translate(0,0)" fill="rgb(0,0,0)" fill-opacity="0.87451" d="M 358.544 1164.32 C 359.91 1164.01 360.744 1164.13 362.105 1164.43 L 361.606 1165.64 C 355.302 1167.75 348.725 1168.97 342.233 1170.36 C 340.28 1170.45 338.817 1170.59 337.006 1169.69 C 340.788 1165.88 353.099 1165.17 358.544 1164.32 z"/>
<path transform="translate(0,0)" fill="rgb(0,0,0)" fill-opacity="0.878431" d="M 662.902 1485.34 L 663.79 1485.42 L 665.183 1489.39 C 665.382 1494.56 670.004 1506.91 669.481 1512.04 C 664.119 1504.55 663.003 1494.32 662.902 1485.34 z"/>
<path transform="translate(0,0)" fill="rgb(0,0,0)" fill-opacity="0.67451" d="M 663.472 1463.26 C 665.459 1453.06 666.295 1446.85 669.695 1436.87 C 670.776 1439.44 666.477 1460.56 665.378 1464.31 L 663.472 1463.26 z"/>
<path transform="translate(0,0)" fill="rgb(0,0,0)" fill-opacity="0.835294" d="M 1119.67 1160.71 L 1119.06 1163.28 C 1113.56 1167.67 1108.31 1172.25 1101.52 1174.43 L 1100.37 1170.26 C 1106.94 1170.7 1113.16 1164.69 1119.67 1160.71 z"/>
<path transform="translate(0,0)" fill="rgb(0,0,0)" fill-opacity="0.968627" d="M 357.093 1386.21 L 362.992 1386.89 C 365.794 1391.62 368.005 1397.31 370.167 1402.41 C 363.044 1397.08 361.353 1393.82 357.093 1386.21 z"/>
<path transform="translate(0,0)" fill="rgb(0,0,0)" fill-opacity="0.988235" d="M 387.804 1473.27 C 389.913 1472.92 391.984 1472.97 394.112 1473.09 C 398.856 1473.34 401.439 1474.37 404.578 1477.87 C 404.332 1477.88 404.087 1477.9 403.841 1477.91 C 397.903 1478 392.309 1477.46 387.804 1473.27 z"/>
<path transform="translate(0,0)" fill="rgb(0,0,0)" fill-opacity="0.423529" d="M 663.472 1463.26 L 665.378 1464.31 C 663.852 1474.19 664.017 1479.15 665.183 1489.39 L 663.79 1485.42 L 662.902 1485.34 C 661.801 1481.48 662.503 1467.47 663.472 1463.26 z"/>
<path transform="translate(0,0)" fill="rgb(0,0,0)" fill-opacity="0.52549" d="M 622.728 1547.37 C 624.624 1549.92 626.194 1550.93 625.843 1553.37 C 622.38 1551.96 622.577 1551.16 620.011 1547.9 L 622.728 1547.37 z"/>
</svg>