<svg version="1.1" xmlns="http://www.w3.org/2000/svg" style="display: block;" viewBox="0 0 2048 855" width="613" height="256" preserveAspectRatio="none">
<path transform="translate(0,0)" fill="#241018" d="M 1495.5 313.41 C 1497 313.307 1498.52 313.236 1500.03 313.195 C 1593.25 310.678 1648.17 351.794 1672.04 441.829 C 1680.44 473.508 1679.82 485.12 1680.71 517.968 C 1662 519.151 1630.13 518.069 1610.44 518.062 C 1556.28 517.725 1502.12 517.923 1447.97 518.657 C 1449.97 549.593 1457.75 582.787 1495.35 589.641 C 1513.46 592.942 1537.67 589.323 1550.24 575.368 C 1556.79 568.103 1562.53 554.435 1574.11 554.21 C 1604.7 553.452 1635.87 552.827 1666.39 554.414 C 1668.98 554.548 1670.23 556.35 1671.41 558.23 C 1664.05 580.36 1660.21 596.334 1644.51 614.487 C 1611.03 653.182 1572.9 666.86 1522.57 669.515 C 1474.46 672.054 1429.29 666.476 1391.24 634.056 C 1354.18 602.473 1339.68 558.146 1335.61 511.631 C 1331.93 469.514 1342.77 399.799 1371.87 367.66 C 1412.17 323.164 1439.72 317.221 1495.5 313.41 z M 1446.4 455.016 L 1508.5 455.038 C 1528.99 454.969 1549.8 454.735 1570.26 454.937 C 1568.96 435.122 1565.34 416.506 1549.68 402.782 C 1540.7 394.91 1522.15 385.175 1509.92 386.356 C 1471.58 391.211 1449.29 416.811 1446.4 455.016 z"/>
<path transform="translate(0,0)" fill="#241018" d="M 1154.05 316.346 C 1154.79 316.268 1155.53 316.214 1156.27 316.183 C 1172.4 315.392 1187.77 315.154 1203.85 316.713 C 1293 325.358 1288.02 411.069 1288.03 478.24 L 1288.09 577.974 C 1288.1 597.693 1287.69 619.38 1288.6 638.939 C 1289.9 635.525 1290.09 630.77 1290.43 627.039 C 1291.51 633.447 1293.19 655.06 1290.32 660.385 C 1284.33 663.079 1189.73 662.21 1176.52 661.755 C 1175.71 586.586 1182.04 496.255 1170.21 421.339 C 1166.2 396.01 1102.96 392.832 1091.53 418.295 C 1088 426.254 1076.7 459.203 1076.25 467.075 C 1074.91 490.697 1074.66 521.167 1075.17 544.996 C 1075.97 582.04 1073.53 625.807 1076.35 662.095 C 1039.96 661.925 1000.2 661.136 963.993 662.68 C 964.925 583.4 964.264 502.914 964.257 423.538 L 964.101 360.293 C 964.05 349.16 963.424 331.94 964.769 321.655 C 972.095 322.341 981.075 322.212 988.5 322.019 C 1017.02 321.278 1046.3 322.882 1074.73 321.176 C 1074.9 335.952 1074.46 349.954 1073.96 364.693 C 1080.32 358.842 1085.98 351.112 1091.8 344.398 C 1108.07 325.631 1129.98 318.988 1154.05 316.346 z"/>
<path transform="translate(0,0)" fill="#241018" d="M 1860.86 403.587 C 1868.35 381.894 1883.05 361.993 1894.29 342.068 C 1897.69 336.039 1905.21 323.522 1912.69 322.743 C 1925.83 321.375 1939.62 321.799 1952.9 321.785 C 1980.65 321.749 2008.4 321.886 2036.15 322.196 C 2023.34 342.972 2012.96 362.293 1997.03 381.533 C 1991 388.808 1985.45 401.585 1979.67 409.892 C 1968.33 426.189 1956.26 441.891 1945.21 458.372 C 1942.64 462.321 1924.27 480.82 1925.61 485.026 C 1927.06 489.571 1934.47 499.782 1937.52 504.528 C 1970.7 556.21 2007.43 606.209 2040.15 657.93 C 2040.7 658.805 2039.27 660.118 2038.55 660.991 C 2034.13 662.987 2027.58 662.172 2022.53 661.988 L 1954.71 662.022 C 1943.28 662.029 1927.81 662.588 1916.86 661.227 C 1904.06 652.857 1897.01 633.162 1888.88 620.109 C 1878.77 603.856 1869.35 586.714 1860.45 569.757 C 1853.33 586.346 1845.37 598.302 1836.25 613.603 C 1827.11 628.955 1820.1 646.786 1808.71 660.639 C 1796.15 662.604 1688.01 663.872 1682.36 660.581 C 1681.25 659.939 1681.33 658.813 1681.05 657.631 C 1682.22 652.555 1685.84 651.153 1688.25 646.741 C 1710.77 605.59 1739.98 566.853 1766.47 528.095 C 1777.98 511.25 1784.63 500.41 1797.31 483.595 C 1793.77 477.865 1789.04 472.95 1785.23 467.517 C 1764.31 437.752 1742.88 408.088 1722.31 378.082 C 1711.98 363.012 1691.51 339.421 1685.39 322.345 C 1697.34 321.089 1726 322.163 1739.33 321.857 C 1760.26 321.376 1783.9 321.788 1804.9 322.288 C 1807.95 322.36 1813.49 323.316 1815.57 325.859 C 1823.86 335.964 1829.17 349.573 1835.9 360.434 C 1845.49 375.898 1853 387.029 1860.86 403.587 z"/>
<path transform="translate(0,0)" fill="#241018" d="M 333.215 21.4051 C 343.499 22.7473 392.995 62.3288 398.063 73.3775 C 401.677 81.2563 386.225 110.615 384.308 123.322 C 379.091 157.887 383.117 189.182 397.997 220.959 C 401.108 227.605 404.837 235.134 406.787 242.432 C 401.343 243.607 388.922 236.989 384.267 234.104 C 318.94 193.628 303.072 110.86 326.038 41.6029 C 328.22 35.021 328.973 26.94 333.215 21.4051 z"/>
<path transform="translate(0,0)" fill="#241018" d="M 586.779 21.7157 C 594.488 24.7023 601.244 61.2811 603.441 70.2428 C 605.023 76.7009 604.365 88.1543 605.184 95.2116 C 610.569 141.595 591.113 192.468 555.026 222.3 C 546.809 229.08 533.356 236.678 523.506 242.644 C 521.534 242.36 521.243 242.324 519.539 241.305 C 519.358 237.982 525.685 225.917 527.393 221.365 C 541.448 183.929 545.573 146.22 536.626 107.01 C 535.022 99.9815 521.061 76.4496 527.64 69.2748 C 539.01 56.8749 571.668 27.4113 586.779 21.7157 z"/>
<path transform="translate(0,0)" fill="#241018" d="M 628.577 177.434 C 656.1 175.259 686.636 176.768 713.277 184.3 C 717.908 186.803 719.72 192.301 717.043 196.616 C 711.218 204.862 704.892 207.048 698.932 215.81 C 692.274 225.596 673.828 237.909 664.006 244.206 C 649.699 253.379 630.915 259.046 614.901 263.753 C 591.631 267.196 562.501 267.303 538.982 264.313 C 532.826 263.53 530.09 261.673 526.728 256.767 C 526.468 252.449 535.111 248.409 539.592 245.632 C 553.048 237.459 570.235 223.192 579.082 210.3 C 597.754 183.093 595.597 180.13 628.577 177.434 z"/>
<path transform="translate(0,0)" fill="#241018" d="M 249.567 177.353 C 272.964 176.133 289.857 176.945 313.157 177.867 C 327.044 186.168 331.445 196.356 340.648 209.15 C 357.1 232.021 376.266 241.609 399.971 255.599 C 384.838 267.217 375.755 265.725 357.023 266.777 C 292.722 268.065 254.906 249.511 212.744 202.504 C 208.461 197.729 204.196 192.339 208.228 186.195 C 213.719 181.354 241.188 178.399 249.567 177.353 z"/>
<path transform="translate(0,0)" fill="#241018" d="M 425.711 326.285 C 451.995 314.101 462.022 319.667 487.995 310.095 C 491.749 308.711 499.352 304.623 502.541 304.815 L 503.153 306.015 C 502.227 308.78 489.212 326.618 485.774 332.812 C 477.092 348.455 471.868 360.825 464.897 377.259 C 455.193 400.137 452.48 419.445 450.513 443.801 C 450.105 448.857 445.606 457.638 445.362 463.192 C 444.442 484.159 443.354 508.457 444.571 529.235 C 444.767 532.579 450.287 547.91 450.906 555.583 C 451.381 561.464 456.616 589.015 458.011 592.39 C 463.898 606.636 473.709 630.325 481.068 643.885 C 505.189 688.337 553.954 731.922 602.286 747.713 C 618.54 753.023 647.032 757.848 664.442 761.606 C 669.403 762.676 685.836 761.707 691.191 760.554 C 705.383 757.499 718.53 752.437 733.099 749.661 C 738.408 742.505 749.049 736.114 756.636 731.346 L 756.85 730.847 C 762.365 718.304 774.852 707.338 780.571 695.467 C 791.925 671.9 786.705 638.31 789.333 612.588 C 766.108 642.187 747.123 657.665 707.957 662.99 C 542.971 685.422 502.795 465.346 583.238 360.553 C 602.033 336.069 630.447 319.201 661.327 316.398 C 694.409 313.499 736.232 313.523 762.772 335.81 C 771.711 343.317 786.287 356.733 792.286 366.236 C 791.709 358.857 789.84 328.35 793.348 323.638 C 803.227 321.006 813.202 322.451 822.847 321.87 C 844.604 320.559 877.173 323.703 897.963 321.594 C 898.497 383.212 898.647 444.833 898.412 506.453 L 898.391 589.887 C 898.388 621.995 900.107 652.296 893.016 683.651 C 891.21 691.634 891.149 700.924 888.427 708.864 C 878.067 740.731 857.298 772.796 833.988 796.769 C 808.528 822.953 776.55 840.695 741.402 850.129 C 733.425 852.27 718.681 852.487 712.524 855 L 647.425 855 C 638.922 852.535 630.574 852.688 622.026 851.012 C 519.355 830.879 449.923 753.919 410.451 661.35 C 368.517 563.008 376.316 466.572 405.277 366.536 C 408.854 354.432 418.235 336.74 425.711 326.285 z M 734.119 575.907 C 753.59 571.152 767.902 553.508 778.461 537.443 C 786.321 525.485 786.047 514.57 787.343 501.045 C 791.828 454.215 774.818 392.251 714.63 402.33 C 661.196 408.654 659.006 472.341 662.44 514.069 C 665.924 556.39 692.5 579.634 734.119 575.907 z"/>
<path transform="translate(0,0)" fill="#241018" d="M 218.196 580.543 C 219.677 574.425 221.707 567.132 217.265 561.756 C 196.283 536.361 146.755 533.547 116.563 522.274 C 46.4607 496.101 1.50753 474.324 18.7118 389.325 C 23.9773 363.311 39.1399 348.241 61.3001 332.837 C 108.028 306.201 182.036 310.246 233.275 318.558 C 279.406 326.042 318.101 366.335 320.132 413.256 C 296.02 408.637 269.585 412.036 245.173 411.152 C 234.383 410.762 215.387 414.491 209.158 404.185 C 203.332 394.205 197.768 381.987 185.224 380.049 C 173.446 378.23 146.118 375.958 136.59 383.495 C 112.507 402.544 122.896 418.058 145.843 428.602 C 163.725 436.819 171.455 440.192 190.862 443.789 C 197.039 445.218 206.721 449.16 213.285 450.882 C 288.302 470.559 342.928 490.566 328.861 581.224 C 325.36 606.707 306.965 630.461 285.174 644.084 C 234.336 675.866 161.418 674.286 104.229 665.111 C 67.2609 659.18 28.5289 634.89 12.7992 600.659 C 8.73183 591.807 6.90208 576.516 0 570.097 L 0 558.219 C 30.2434 558.13 78.0201 556.667 107.437 558.262 C 119.357 569.04 116.855 575.478 125.352 588.525 C 160.998 604.63 187.655 611.892 218.196 580.543 z"/>
<path transform="translate(0,0)" fill="#241018" d="M 460.656 0 L 461.955 0 C 463.551 2.56108 478.258 20.6026 481.852 25.2677 C 496.24 43.9416 508.079 68.2428 518.436 89.0518 C 532.486 117.282 532.917 179.312 521.024 207.608 C 508.378 237.697 493.528 264.271 461.974 278.278 C 459.479 276.826 456.999 275.35 454.533 273.849 C 412.118 247.658 390.267 185.004 395.719 136.724 C 400.366 95.5715 414.773 61.2787 439.593 28.1963 C 446.529 18.9508 454.503 9.76967 460.656 0 z"/>
</svg>